<svg xmlns="http://www.w3.org/2000/svg">
<defs>
<font id="CloudIcons" horiz-adv-x="1792" >
  <font-face 
    font-family="CloudIconse"
    font-weight="400"
    font-stretch="normal"
    units-per-em="1792"
    panose-1="0 0 0 0 0 0 0 0 0 0"
    ascent="1536"
    descent="-256"
    bbox="0 -255 1794.03 1536"
    underline-thickness="0"
    underline-position="0"
    unicode-range="U+000D-F500"
  />
<missing-glyph horiz-adv-x="1789" 
d="M1788 394q0 -54 -19 -101t-51.5 -82t-76.5 -55t-94 -20h-1228q-66 0 -124 26.5t-101.5 73t-68.5 108.5t-25 133q0 62 19.5 118t54 100t82 74.5t102.5 42.5q14 73 49 135.5t86 108t115 71.5t135 26q59 0 112 -17.5t98 -48.5q45 6 83 9t73 3.5t68.5 -2t69.5 -7.5
q32 -5 62.5 -15t57.5 -27q45 -26 80 -66t58 -90q38 -13 70.5 -36t57 -54.5t40 -69.5t20.5 -81q42 -11 78 -34.5t62 -57.5t40.5 -76t14.5 -89zM1354 824l-1 1l-3 10q-18 46 -47.5 84t-69.5 62q-22 13 -45.5 20.5t-49.5 11.5l-6 1q-9 2 -18 2.5t-17 1.5q-78 -1 -129.5 -38
t-77.5 -115q-17 -53 2.5 -104.5t70.5 -89.5q26 -19 58.5 -32.5t74.5 -21.5q37 -7 71.5 -6t64 8.5t52 20.5t36.5 30q28 33 35 73.5t-1 80.5zM968 1004q-40 1 -78 -2t-76 -9q22 -8 36 -23.5t22 -37.5q7 -25 2 -50q33 83 94 122zM927 673q-29 28 -44 60l-4 -61q12 1 24 1h24z
M870 766q-12 45 -2 93q-16 -39 -60 -70q-17 -12 -34.5 -23.5t-38.5 -25.5q29 4 52 6t51 2l2 16zM860 738l-3 -12h-9q-33 0 -71.5 -2t-70.5 -10l-37 -9l13 15q13 14 28.5 26t32.5 23q16 11 30.5 19t24.5 16q36 26 48 52.5t4 64.5q-11 32 -39.5 48t-83.5 4q-18 -4 -36 -14.5
t-34.5 -24t-31.5 -28.5t-27 -30l-2 -2h-11l-1 -1l47 -60l1 2l-3 7l1 3q24 52 76 79q11 5 29 7q8 2 16.5 0t13.5 -10q10 -15 4.5 -32t-20.5 -29q-30 -23 -60 -50.5t-62 -65.5q-16 -20 -24.5 -45.5t-10.5 -53.5l1 3h2q61 13 124 22t126 6h2l7 -8zM1717 394q0 38 -13.5 71
t-36.5 58t-54 39t-66 14q-7 0 -13.5 -0.5t-12.5 -0.5q1 11 2 21.5t1 21.5q0 72 -38 123.5t-97 73.5q8 -47 -4 -94t-44 -85q-16 -20 -42 -31.5t-59 -16t-70.5 -2.5t-76.5 9q-14 3 -26.5 6t-23.5 7q-74 13 -138.5 15.5t-120.5 -2.5q-105 -8 -196.5 -32.5t-171.5 -72.5

<glyph glyph-name=".notdef" horiz-adv-x="1789" 
d="M1788 394q0 -54 -19 -101t-51.5 -82t-76.5 -55t-94 -20h-1228q-66 0 -124 26.5t-101.5 73t-68.5 108.5t-25 133q0 62 19.5 118t54 100t82 74.5t102.5 42.5q14 73 49 135.5t86 108t115 71.5t135 26q59 0 112 -17.5t98 -48.5q45 6 83 9t73 3.5t68.5 -2t69.5 -7.5
q32 -5 62.5 -15t57.5 -27q45 -26 80 -66t58 -90q38 -13 70.5 -36t57 -54.5t40 -69.5t20.5 -81q42 -11 78 -34.5t62 -57.5t40.5 -76t14.5 -89zM1354 824l-1 1l-3 10q-18 46 -47.5 84t-69.5 62q-22 13 -45.5 20.5t-49.5 11.5l-6 1q-9 2 -18 2.5t-17 1.5q-78 -1 -129.5 -38
t-77.5 -115q-17 -53 2.5 -104.5t70.5 -89.5q26 -19 58.5 -32.5t74.5 -21.5q37 -7 71.5 -6t64 8.5t52 20.5t36.5 30q28 33 35 73.5t-1 80.5zM968 1004q-40 1 -78 -2t-76 -9q22 -8 36 -23.5t22 -37.5q7 -25 2 -50q33 83 94 122zM927 673q-29 28 -44 60l-4 -61q12 1 24 1h24z
M870 766q-12 45 -2 93q-16 -39 -60 -70q-17 -12 -34.5 -23.5t-38.5 -25.5q29 4 52 6t51 2l2 16zM860 738l-3 -12h-9q-33 0 -71.5 -2t-70.5 -10l-37 -9l13 15q13 14 28.5 26t32.5 23q16 11 30.5 19t24.5 16q36 26 48 52.5t4 64.5q-11 32 -39.5 48t-83.5 4q-18 -4 -36 -14.5
t-34.5 -24t-31.5 -28.5t-27 -30l-2 -2h-11l-1 -1l47 -60l1 2l-3 7l1 3q24 52 76 79q11 5 29 7q8 2 16.5 0t13.5 -10q10 -15 4.5 -32t-20.5 -29q-30 -23 -60 -50.5t-62 -65.5q-16 -20 -24.5 -45.5t-10.5 -53.5l1 3h2q61 13 124 22t126 6h2l7 -8zM1717 394q0 38 -13.5 71
t-36.5 58t-54 39t-66 14q-7 0 -13.5 -0.5t-12.5 -0.5q1 11 2 21.5t1 21.5q0 72 -38 123.5t-97 73.5q8 -47 -4 -94t-44 -85q-16 -20 -42 -31.5t-59 -16t-70.5 -2.5t-76.5 9q-14 3 -26.5 6t-23.5 7q-74 13 -138.5 15.5t-120.5 -2.5q-105 -8 -196.5 -32.5t-171.5 -72.5
q-125 -77 -114 -165q3 -24 17 -49t37 -44.5t55 -32t71 -12.5h1065q35 0 66 14t54 39t36.5 57.5t13.5 70.5zM744 886q-2 3 -6.5 3t-10.5 -0.5t-11 -2t-7 -2.5q-23 -12 -37 -27t-24 -35l6 -11l-30 -31l-68 88l24 29h11q11 12 20.5 22.5t19.5 19.5l-44 -20t-42 -24h-1l1 -7
l-11 -8l5 -146l10 3l1 12l32 10l2 -70q10 26 26 45q32 40 61.5 67.5t59.5 51.5q13 10 15.5 18.5t-2.5 14.5zM562 678l-1 37l-40 -14l-6 175l-65 -36v-14l-65 -184v-38l103 49l2 -48l-5 -13v-13l47 18l-1 13l-6 1v54zM573 646l-18 -4l-2 10l-7 -3l-1 -14l10 -1l1 -13
q4 2 7.5 2.5t7.5 2.5q1 5 1 10t1 10zM798 1033q-72 43 -155 43q-68 0 -124.5 -26t-98 -71.5t-66.5 -106.5t-29 -130q-52 -2 -98 -21.5t-80.5 -54t-55 -82.5t-20.5 -107q0 -55 19.5 -103t53 -84t79 -56.5t96.5 -20.5h41q-75 53 -107 137t-11 208q14 78 60.5 146t120.5 130
l-1 12l71 40q81 48 155 87.5t150 59.5zM470 607l-1 10l-77 -36l-1 -9l-27 -14l-4 83l55 149q-35 -35 -63 -70t-46 -73q-89 -186 -22 -332q-4 25 -1 62q12 109 181 204v13zM1207 818q0 -24 -8.5 -45t-23 -36.5t-34 -24.5t-41.5 -9t-41.5 9t-34 24.5t-23 36.5t-8.5 45
t8.5 44.5t23 36.5t34 25t41.5 9t41.5 -9t34 -25t23 -36.5t8.5 -44.5zM477 688l-67 -33l63 159zM1186 818q0 19 -6.5 36t-18.5 29.5t-27.5 20t-33.5 7.5t-34 -7.5t-27.5 -20t-18.5 -29.5t-7 -36t7 -36t18.5 -29.5t27.5 -20t34 -7.5t33.5 7.5t27.5 20t18.5 29.5t6.5 36z
M459 701l-1 27l-14 -35z" />
    <glyph glyph-name="NULL" horiz-adv-x="0" 
 />
    <glyph glyph-name="NULL" horiz-adv-x="0" 
 />
    <glyph glyph-name="nonmarkingreturn" unicode="&#xd;" horiz-adv-x="597" 
 />
    <glyph glyph-name="space" unicode=" " horiz-adv-x="448" 
 />
    <glyph glyph-name="trademark" unicode="&#x2122;" 
 />
    <glyph glyph-name="dieresis" unicode="&#xa8;" 
 />
    <glyph glyph-name="copyright" unicode="&#xa9;" 
 />
    <glyph glyph-name="registered" unicode="&#xae;" 
 />
    <glyph glyph-name="acute" unicode="&#xb4;" 
 />
    <glyph glyph-name="AE" unicode="&#xc6;" 
 />
    <glyph glyph-name="Oslash" unicode="&#xd8;" 
 />
    <glyph glyph-name="infinity" unicode="&#x221e;" 
 />
    <glyph glyph-name="notequal" unicode="&#x2260;" 
 />
    <glyph glyph-name="cloud" unicode="&#xf000;" horiz-adv-x="1789" 
d="M1565 683q0 -47 -18 -89t-49 -73t-73 -49t-89 -18t-88.5 18t-72.5 49t-49 73t-18 89t18 88.5t49 72.5t72.5 49t88.5 18t89 -18t73 -49t49 -72.5t18 -88.5zM1788 679q0 -68 -21.5 -129t-59 -111t-90 -86.5t-113.5 -54.5v89q44 17 81 46t63.5 67t41.5 83.5t15 95.5
q0 57 -19 107.5t-52.5 91t-79.5 68.5t-99 39q-15 3 -30.5 5t-32.5 2q-8 0 -15 -0.5t-15 -1.5q-10 21 -22 40.5t-26 37.5q-58 73 -143.5 116.5t-186.5 43.5q-53 0 -102 -12.5t-92.5 -35.5t-81 -55.5t-65.5 -72.5q-25 -35 -42 -73q-16 11 -35 18t-40 7q-2 0 -3 -0.5t-3 -0.5
q-42 -2 -74.5 -28t-43.5 -66q-5 -18 -5 -34t4 -31t11 -29q-43 22 -95 24h-6q-47 0 -88.5 -18t-72 -48.5t-48.5 -72t-18 -88.5q0 -44 17 -83t46.5 -70t68 -50.5t81.5 -24.5h151v-51v-32h-137q-62 0 -115.5 22t-95.5 61q-47 43 -73.5 101.5t-26.5 126.5q0 64 24.5 121t66.5 99
t98.5 66.5t121.5 24.5h8q8 35 27.5 65t46.5 52t61 34.5t72 12.5q19 0 37 -3q34 51 79 93t99 72t115.5 46.5t127.5 16.5q67 0 130 -17t117.5 -48t100.5 -75t79 -97q79 -4 147.5 -36.5t119.5 -86t80.5 -124t29.5 -149.5zM1457 298q0 -40 -29 -71q-31 -29 -71 -29h-24v201h24
q41 0 71 -30q29 -29 29 -71zM1080 510q0 -17 0.5 -26.5t-1.5 -14t-8 -5t-19 -0.5h-34h-58h-70.5h-70.5h-58h-34q-22 0 -14.5 8.5t48.5 37.5q21 14 56 37.5t68.5 52.5t58.5 61.5t27 64.5q1 32 -10 50t-27 27t-32.5 11.5t-24.5 2.5q-17 0 -41.5 -7t-40.5 -31
q-20 -29 -21.5 -54.5t3.5 -41.5q2 -8 3.5 -13.5t-0.5 -9.5t-8 -7.5t-19 -7.5q-12 -4 -20.5 -6.5t-14.5 0.5t-9.5 12.5t-6.5 29.5t-3.5 37.5t4 35t13.5 36.5t26 41q23 30 61 49t70 19q37 0 68 -13.5t54 -36.5t36 -54t13 -67q-2 -28 -17 -60q-13 -27 -41.5 -61t-80.5 -69h139
h19.5t11 -2t4.5 -8t1 -18zM1307 280q0 -34 -24 -58t-58 -24q-33 0 -57 24t-24 58v119h28v-119q0 -22 16 -38q15 -15 37 -15q21 0 38 15q16 18 16 38v119h28v-119zM1117 298q0 -42 -30 -72t-73 -30q-42 0 -72 30t-30 72q0 43 30 73t72 30q43 0 73 -30t30 -73zM917 198h-104
v201h29v-172h75v-29zM789 381l-15 -24l-5 3q-17 13 -41 13q-29 0 -53 -22q-22 -24 -22 -53q0 -28 22 -52q22 -22 53 -22q21 0 41 12l5 4l15 -24l-5 -3q-24 -17 -56 -17q-43 0 -73 30t-30 72q0 43 30 73t73 30q32 0 56 -17zM670 497q0 -16 -4.5 -22t-20.5 -6l-79 -1l-3 -256
q0 -16 -11 -15.5t-28 0.5q-8 0 -16 -0.5t-14.5 0t-10.5 4t-4 11.5l5 258h-209h-17t-22 1q-13 1 -28 2q-3 0 0.5 7t8.5 15q6 10 15 21l242 292q18 22 36.5 44.5t32.5 38t23.5 21t9.5 -6.5q0 -24 0.5 -41.5t-1.5 -27.5v-290l71 -2q11 0 16 -1t7 -5t1.5 -13.5t-0.5 -27.5z
M1481 682q0 30 -11.5 56t-31 45.5t-45.5 30.5t-56 11t-56 -11t-45.5 -30.5t-30.5 -45.5t-11 -56t11 -56.5t30.5 -46t45.5 -30.5t56 -11t56 11t45.5 30.5t31 46t11.5 56.5zM1429 298q0 30 -21 51q-20 20 -46 21v-144q26 1 46 21q21 22 21 51zM1089 298q0 29 -22 53
q-24 22 -53 22q-28 0 -52 -22q-22 -22 -22 -53q0 -30 22 -52t52 -22q31 0 53 22q22 24 22 52zM489 549v164l-141 -162z" />
    <glyph glyph-name="cloud_invert" unicode="&#xf001;" horiz-adv-x="1789" 
d="M1789 641q0 -124 -32 -238t-90 -213t-139.5 -180.5t-181 -139.5t-214 -90t-237.5 -32q-124 0 -238.5 32t-213.5 90t-181 139.5t-140 180.5t-90 213.5t-32 237.5q0 124 32 238.5t90 213.5t140 181t181 140t213.5 90t238.5 32q123 0 237.5 -32t214 -90t181 -140t139.5 -181
t90 -213.5t32 -238.5zM1753 641q0 118 -30.5 228t-86.5 205.5t-134.5 174t-174 134.5t-205 86.5t-227.5 30.5q-119 0 -228.5 -30.5t-205 -86.5t-174 -134.5t-134.5 -174t-86.5 -205t-30.5 -228.5q0 -118 30.5 -227.5t86.5 -205t134.5 -173.5t174 -134t205.5 -86.5t228 -30.5
t227.5 30.5t205 86.5t174 134t134.5 173.5t86.5 205t30.5 227.5zM1710 641q0 -113 -29 -217t-82 -194t-127.5 -164.5t-165 -127.5t-195 -82t-216.5 -29q-113 0 -217 29t-195 82t-165.5 127.5t-127.5 164.5t-82 194t-29 217t29 217t82 195t127.5 165.5t165.5 127.5t195 82
t217 29q112 0 216.5 -29t195 -82t165 -127.5t127.5 -165.5t82 -195t29 -217zM1451 695q0 39 -15 73.5t-40.5 60t-60.5 40.5t-74 15t-73.5 -15t-60 -40.5t-40.5 -60t-15 -73.5t15 -74t40.5 -60.5t60 -40.5t73.5 -15t74 15t60.5 40.5t40.5 60.5t15 74zM1637 691
q0 66 -24.5 125t-67 103t-99.5 71t-123 30q-27 44 -65 80.5t-83.5 62.5t-97.5 40t-108 14q-55 0 -106 -13.5t-96 -38.5t-82.5 -59.5t-65.5 -77.5q-15 3 -31 3q-32 0 -60 -10.5t-50.5 -29t-38.5 -43.5t-23 -54h-6q-54 0 -101 -20t-82 -55t-55.5 -82t-20.5 -101
q0 -57 22.5 -105.5t60.5 -84.5q35 -32 80 -50t96 -18h114v26v42h-126q-36 4 -68 20.5t-56 42t-38.5 58.5t-14.5 69q0 39 15 73.5t40.5 60t60 40.5t73.5 15h4q43 -1 80 -20q-13 24 -13 49q0 8 1 15t3 14q10 33 37 54.5t62 23.5h4q35 0 63 -20q8 16 16 31t19 29
q48 67 121.5 106.5t161.5 39.5q84 0 155 -36t119 -97q24 -30 40 -64q6 1 12 1h13q14 0 26.5 -1.5t25.5 -3.5q44 -9 82 -32.5t65.5 -57t43.5 -76t16 -89.5q0 -41 -12.5 -79t-34.5 -69.5t-52.5 -55.5t-66.5 -38v-74q51 15 94 45.5t74.5 72t49.5 92t18 106.5zM1362 375
q0 35 -25 59q-24 25 -58 25h-20v-167h20q34 0 58 25q25 24 25 58zM1049 552q0 19 -5.5 21t-24.5 2h-116q44 29 67 56.5t34 50.5q12 26 15 50q0 30 -11 55.5t-30 45t-45 30.5t-56 11q-13 0 -28 -4t-30 -11.5t-28.5 -18t-22.5 -22.5q-27 -37 -33 -64.5t-1 -59.5q3 -17 6 -25
t7.5 -10.5t11.5 -0.5t18 5q21 8 22.5 13t-2.5 19q-4 13 -2.5 34t17.5 46q13 20 33.5 25.5t34.5 5.5q7 0 20.5 -2t26.5 -9.5t22.5 -22.5t8.5 -42q-2 -27 -22.5 -53.5t-48.5 -50.5t-57 -43t-46 -31q-35 -24 -41 -31.5t13 -7.5h28h48.5h58.5h58.5h48h28.5q11 0 15.5 0.5t6 4.5
t1.5 11.5v22.5zM1237 360v99h-24v-99q0 -18 -13 -31q-12 -13 -31 -13q-18 0 -31 13t-13 31v99h-24v-99q0 -28 20 -48q22 -20 48 -20q28 0 48 20t20 48zM1080 375q0 35 -26 61q-24 25 -60 25t-60 -25q-25 -25 -25 -61q0 -35 25 -60q24 -25 60 -25q35 0 60 25q26 26 26 60z
M913 292v24h-62v143h-24v-167h86zM807 444l-4 3q-22 14 -47 14q-36 0 -60 -25q-26 -26 -26 -61q0 -34 26 -60q25 -25 60 -25q25 0 47 14l4 3l-13 20l-4 -3q-14 -10 -34 -10q-25 0 -44 18q-18 18 -18 43q0 26 18 44t44 18q20 0 34 -10l4 -3zM708 541v22.5t-1.5 11t-5.5 4.5
t-13 1l-59 1v241q1 8 1 22.5v34.5q0 10 -8 5.5t-20 -17.5t-27 -31.5t-30 -36.5l-201 -243l-12 -18q-5 -7 -7.5 -12t-0.5 -5q12 -1 23 -2q9 -1 18.5 -1h14.5h173l-3 -214q0 -7 3 -9.5t8.5 -3t12 0t13.5 0.5q14 0 23 -1t9 13l3 212l65 1q14 0 17.5 5t3.5 19zM1382 694
q0 -25 -9.5 -46.5t-26 -37.5t-38 -25.5t-46.5 -9.5t-46.5 9.5t-37.5 25.5t-25.5 37.5t-9.5 46.5t9.5 46.5t25.5 37.5t37.5 25.5t46.5 9.5t46.5 -9.5t38 -25.5t26 -37.5t9.5 -46.5zM1338 375q0 -25 -17 -42q-15 -15 -39 -17v119q24 -2 39 -17q17 -17 17 -43zM1056 375
q0 -25 -18 -43q-20 -18 -44 -18q-25 0 -44 18q-18 18 -18 43q0 26 18 44q19 18 44 18q24 0 44 -18q18 -18 18 -44zM557 584l-116 1l116 135v-136z" />
    <glyph glyph-name="visitors" unicode="&#xf002;" horiz-adv-x="1789" 
d="M1790 679v-29q-219 -227 -443.5 -340t-450 -113t-450.5 113t-446 340v29q223 230 449 345t451.5 115t448.5 -115t441 -345zM1658 670q-239 233 -479 318l-7 -11q69 -57 108.5 -136t39.5 -173q0 -93 -39.5 -172t-108.5 -136l7 -12q241 85 479 313v9zM1254 668
q0 71 -28.5 134t-77 109.5t-114 73.5t-139.5 27q-69 0 -130 -23t-109 -64l-48 53v-2l-4 7q-236 -89 -471 -313v-10q239 -225 475 -310l7 12q-67 57 -106 135.5t-39 170.5q0 20 1.5 39t5.5 38l66 -9q-7 -31 -7 -68q0 -71 28 -134t77 -109.5t114.5 -73.5t139.5 -27t139.5 27
t114 73.5t77 109.5t28.5 134zM1117 668q0 -44 -17.5 -82.5t-47.5 -67.5t-70.5 -45.5t-86.5 -16.5t-86.5 16.5t-70.5 45.5t-47.5 67.5t-17.5 82.5q0 25 6 49l192 -26l-124 136q29 25 67 39.5t81 14.5q46 0 86.5 -16.5t70.5 -45.5t47.5 -68t17.5 -83z" />
    <glyph glyph-name="camera" unicode="&#xf003;" horiz-adv-x="1789" 
d="M1696 943v-588q0 -82 -27 -145.5t-76.5 -108.5t-120 -71.5t-157.5 -33.5q-24 -2 -37.5 11.5t-15 31.5t9 34t34.5 18q146 14 220 79.5t74 185.5v522q-106 42 -208.5 72t-213.5 53q-5 39 -12.5 76.5t-24.5 67t-46 47.5t-76 18h-253q-47 0 -76 -18t-46 -47.5t-24.5 -67
t-12.5 -76.5q-111 -23 -213 -53t-208 -72v-520q0 -240 293 -267q24 -2 34.5 -18t9 -34t-15 -31.5t-37.5 -11.5q-87 7 -157.5 33.5t-120 71.5t-76.5 108.5t-27 145.5v588q107 44 213 79t219 61q10 50 30 91.5t50 71t70.5 46t90.5 16.5h261q50 0 90.5 -16.5t70.5 -46t50 -71
t30 -91.5q113 -26 219 -61t213 -79zM403 1081l-181 -48q-23 -6 -38.5 5t-20.5 28.5t3 35.5t31 24l181 48q23 6 38.5 -5t20.5 -28.5t-3 -35.5t-31 -24zM1415 497q0 -108 -41 -203t-112 -165.5t-166 -111.5t-203 -41t-203.5 41t-166.5 111.5t-112 165.5t-41 203t41 203
t112 166t166.5 112t203.5 41t203 -41t166 -112t112 -166t41 -203zM1302 497q0 85 -32 159.5t-87.5 130t-130 88t-159.5 32.5t-160 -32.5t-130.5 -88t-87.5 -130t-32 -159.5t32 -159.5t87.5 -130t130.5 -88t160 -32.5t159.5 32.5t130 88t87.5 130t32 159.5z" />
    <glyph glyph-name="camera_1" unicode="&#xf004;" horiz-adv-x="1789" 
d="M1700 947v-589q0 -82 -27 -145.5t-76.5 -108.5t-120 -71.5t-158.5 -34.5h-8l-278 -2q-66 -18 -137 -18q-73 0 -137 18h-288q-87 9 -157.5 36t-120 72t-76 108.5t-26.5 145.5l-1 589q108 45 214 80t219 61q10 50 30.5 91.5t50.5 71.5t70.5 46.5t90.5 16.5h261
q51 0 91 -16.5t70.5 -46.5t50.5 -71.5t30 -91.5q113 -26 219.5 -61t213.5 -80zM404 1086l-181 -49q-24 -6 -39.5 5.5t-20 29t3.5 35.5t31 24l181 48q23 6 38.5 -5.5t20.5 -29t-3 -35t-31 -23.5zM1604 359v523q-106 42 -208.5 72t-214.5 54q-5 39 -12.5 76.5t-24.5 67
t-46 47.5t-76 18h-254q-47 0 -76 -18t-46 -47.5t-25 -67t-13 -76.5q-111 -24 -213.5 -54t-208.5 -72v-521q0 -241 294 -268q3 0 5.5 -0.5t5.5 -0.5h77q-91 72 -144 177.5t-53 230.5q0 108 41 203.5t112.5 167t167 112.5t203.5 41t203.5 -41t166.5 -112.5t112 -167t41 -203.5
q0 -125 -52.5 -230.5t-143.5 -177.5h77q2 0 5 0.5t5 0.5q295 27 295 266zM1306 500q0 85 -32.5 160t-88 130.5t-130.5 88t-160 32.5t-160 -32.5t-130.5 -88t-88 -130.5t-32.5 -160q0 -80 28.5 -151t78.5 -125.5t117.5 -89.5t145.5 -42q10 -2 20 -2h21h20.5t20.5 2
q78 7 145.5 42t117.5 89.5t78.5 125.5t28.5 151zM1180 501q0 -59 -22.5 -110.5t-60.5 -89.5t-90 -60.5t-110 -22.5q-59 0 -110.5 22.5t-89.5 60.5t-60.5 89.5t-22.5 110.5q0 58 22.5 110t60.5 90t89.5 60.5t110.5 22.5q58 0 110 -22.5t90 -60.5t60.5 -90t22.5 -110zM936 92
q-11 -2 -20.5 -2h-20.5h-21t-20 2h82z" />
    <glyph glyph-name="camera_1_invert" unicode="&#xf005;" horiz-adv-x="1789" 
d="M1700 947v-589q0 -82 -27 -145.5t-76.5 -108.5t-120 -71.5t-158.5 -34.5h-8l-278 -2q-66 -18 -137 -18q-73 0 -137 18h-288q-87 9 -157.5 36t-120 72t-76 108.5t-26.5 145.5l-1 589q108 45 214 80t219 61q10 50 30.5 91.5t50.5 71.5t70.5 46.5t90.5 16.5h261
q51 0 91 -16.5t70.5 -46.5t50.5 -71.5t30 -91.5q113 -26 219.5 -61t213.5 -80zM404 1086l-181 -49q-24 -6 -39.5 5.5t-20 29t3.5 35.5t31 24l181 48q23 6 38.5 -5.5t20.5 -29t-3 -35t-31 -23.5zM895 90h-21t-20 2zM1418 500q1 108 -39.5 203.5t-112 167t-167.5 112.5
t-204 41t-203.5 -41t-167 -112.5t-112.5 -167t-41 -203.5q0 -125 53 -230.5t144 -177.5q103 -68 191.5 -94t168 -21.5t152 36t142.5 79.5q54 44 97 105q37 52 67 127.5t32 175.5zM1306 500q0 -80 -28.5 -151t-78.5 -125.5t-117.5 -89.5t-145.5 -42q-11 -2 -20.5 -2h-20.5
h-21t-20 2q-78 7 -145.5 42t-117.5 89.5t-78.5 125.5t-28.5 151q0 85 32.5 160t88 130.5t130.5 88t160 32.5t160 -32.5t130.5 -88t88 -130.5t32.5 -160zM1180 501q0 58 -22.5 110t-60.5 90t-90 60.5t-110 22.5q-59 0 -110.5 -22.5t-89.5 -60.5t-60.5 -90t-22.5 -110
q0 -59 22.5 -110.5t60.5 -89.5t89.5 -60.5t110.5 -22.5q58 0 110 22.5t90 60.5t60.5 89.5t22.5 110.5z" />
    <glyph glyph-name="stat" unicode="&#xf006;" horiz-adv-x="1789" 
d="M1696 178q0 -34 -13 -63.5t-35.5 -52t-52.5 -35.5t-64 -13h-1277q-34 0 -64 13t-52.5 35.5t-35.5 52t-13 63.5v921q0 34 13 64t35.5 52t52.5 35t64 13h1277q34 0 64 -13t52.5 -35t35.5 -52t13 -64v-921zM1607 338v761q0 32 -22 53.5t-54 21.5h-1277q-32 0 -54 -21.5
t-22 -53.5v-761q0 -32 22 -54t54 -22h1277q32 0 54 22t22 54zM952 134q0 25 -17 42t-42 17t-42.5 -17t-17.5 -42t17.5 -42.5t42.5 -17.5t42 17.5t17 42.5zM1519 623q0 -15 -9.5 -26.5t-28.5 -11.5h-274l-103 307l-194 -463q-2 -15 -13 -25.5t-25 -10.5q-13 0 -22 7t-14 18
l-167 350l-105 -190h-269q-19 0 -28.5 12t-9.5 26q0 15 9.5 26.5t28.5 11.5h224l117 211q5 11 14.5 17.5t21.5 6.5q14 0 24 -8t13 -21l159 -334l203 483q3 13 13 21t24 8q15 0 25.5 -10t12.5 -24l115 -343h220q19 0 28.5 -12t9.5 -26z" />
    <glyph glyph-name="stat_invert" unicode="&#xf007;" horiz-adv-x="1789" 
d="M1696 178q0 -34 -13 -63.5t-35.5 -52t-52.5 -35.5t-64 -13h-1277q-34 0 -64 13t-52.5 35.5t-35.5 52t-13 63.5v921q0 34 13 64t35.5 52t52.5 35t64 13h1277q34 0 64 -13t52.5 -35t35.5 -52t13 -64v-921zM1519 623q0 14 -9.5 26t-28.5 12h-220l-115 343q-2 14 -12.5 24
t-25.5 10q-14 0 -24 -8t-13 -21l-203 -483l-159 334q-3 13 -13 21t-24 8q-12 0 -21.5 -6.5t-14.5 -17.5l-117 -211h-224q-19 0 -28.5 -11.5t-9.5 -26.5q0 -14 9.5 -26t28.5 -12h269l105 190l167 -350q5 -11 14 -18t22 -7q14 0 25 10.5t13 25.5l194 463l103 -307h274
q19 0 28.5 11.5t9.5 26.5zM952 134q0 25 -17 42t-42 17t-42.5 -17t-17.5 -42t17.5 -42.5t42.5 -17.5t42 17.5t17 42.5z" />
    <glyph glyph-name="verified_account" unicode="&#xf008;" horiz-adv-x="1789" 
d="M1464 -18q0 -30 -11.5 -57t-31.5 -47t-47 -31.5t-57 -11.5h-865q-31 0 -58 11.5t-47 31.5t-31.5 47t-11.5 57v1317q0 30 11.5 57t31.5 47t47 31.5t58 11.5h865q30 0 57 -11.5t47 -31.5t31.5 -47t11.5 -57v-1317zM1236 541q0 45 -21 81.5t-56 59.5q-26 22 -62 51.5t-71 65
t-64.5 77t-42.5 88.5q-13 26 -24.5 26t-19.5 -26q-14 -47 -43 -88.5t-64.5 -77t-71 -65t-61.5 -51.5q-35 -23 -55.5 -59.5t-20.5 -81.5q0 -35 13 -66t36 -54t54 -36.5t66 -13.5q44 0 80.5 20.5t59.5 54.5l-22 -178h102l-22 178q23 -34 59.5 -54.5t81.5 -20.5q35 0 65.5 13.5
t53.5 36.5t36.5 54t13.5 66z" />
    <glyph glyph-name="popularity" unicode="&#xf009;" horiz-adv-x="1789" 
d="M1700 513q0 -80 -15 -156t-43.5 -146t-69 -132.5t-91.5 -116.5q-55 58 -121 104.5t-140.5 79.5t-156 50.5t-168.5 17.5t-168.5 -17.5t-156.5 -50.5t-141 -79.5t-121 -104.5q-51 54 -91.5 116.5t-69 132.5t-43.5 146t-15 156q0 111 29 214t81.5 192t126 163t163 126
t192.5 81t214 29t214 -29t192 -81t163 -126t126 -163t81 -192t29 -214zM1271 928q12 21 15 44t-2.5 45t-19 41t-34.5 32q-21 12 -44 15t-45 -2t-41 -18.5t-31 -34.5q-13 -21 -16 -44.5t2.5 -45.5t19 -41t34.5 -31q21 -13 44 -16t45 2.5t41 19t32 34.5zM1472 848
q-12 21 -31 34.5t-41 19t-45.5 2.5t-44.5 -15q-21 -13 -34.5 -32t-19 -41t-2.5 -45t16 -44t32 -34.5t41 -19t45 -2.5t44 16q21 12 34.5 31t19 41t2.5 45t-16 44zM1562 515q0 24 -9.5 45.5t-26 37t-38 24t-45.5 8.5q-25 0 -46 -9.5t-37 -26t-24.5 -38t-8.5 -46.5
q0 -24 10 -45.5t26 -37t38 -24t46 -8.5t45.5 10t37 26t24.5 38t8 46zM1013 1064q-1 25 -10.5 46t-26 37t-38 24.5t-45.5 8.5t-45.5 -10t-37.5 -26t-24.5 -38t-8.5 -46t10 -45.5t26 -37t38 -24.5t46 -8q24 0 45.5 9.5t37 26t24.5 38t9 45.5zM1181 701q19 19 17 41t-17 37
t-37 17t-41 -17l-247 -247q-20 -20 -17.5 -41.5t17.5 -36.5t36.5 -17.5t41.5 17.5zM1472 177q13 21 16 44t-2.5 45t-19 41t-34.5 32q-21 12 -44 15t-45 -2.5t-41 -19t-32 -34.5t-16 -44t2.5 -45t19 -41t34.5 -31q21 -13 44.5 -16t45.5 2.5t41 19t31 34.5zM721 1050
q-13 21 -32 34.5t-41 18.5t-45 2t-44 -15q-21 -13 -34.5 -32t-19 -41t-2.5 -45t16 -44q12 -21 31 -34.5t41 -19t45 -2.5t44 16q21 12 34.5 31t19 41t2.5 45.5t-15 44.5zM519 727q13 21 16 44t-2.5 45t-19 41t-34.5 32q-21 12 -44 15t-45 -2.5t-41 -19t-32 -34.5
q-12 -21 -15 -44t2.5 -45t19 -41t34.5 -31q21 -13 44 -16t45 2.5t41 19t31 34.5zM463 510q0 25 -9 46.5t-24.5 38t-37 26t-45.5 9.5t-46 -8.5t-38 -24t-26 -37t-10 -45.5t8.5 -46t24.5 -38t37.5 -26t45.5 -10t45.5 8.5t38 24t26 37t10.5 45.5zM519 298q-12 21 -31 34.5
t-41 19t-45 2.5t-44 -15q-21 -13 -34.5 -32t-19 -41t-2.5 -45t15 -44q13 -21 32 -34.5t41 -19t45 -2.5t44 16q21 12 34.5 31t19 41t2.5 45t-16 44z" />
    <glyph glyph-name="videos" unicode="&#xf00a;" horiz-adv-x="1789" 
d="M1702 954q0 -90 -42.5 -164.5t-112.5 -119.5v-666h-936v153l-205 -25v410l205 -36v125q-53 15 -97 46t-76 73.5t-50 94.5t-18 109q0 70 26.5 131t72 106.5t107 72t130.5 26.5q61 0 116 -20.5t98.5 -56.5t73.5 -85.5t42 -107.5q12 58 42 107.5t73.5 85.5t98.5 56.5
t116 20.5q70 0 131 -26.5t106.5 -72t72 -106.5t26.5 -131zM320 121l-230 -28v505l230 -41v-436zM1452 954q0 18 -7 33.5t-18.5 27t-27 18t-33.5 6.5t-33.5 -6.5t-27 -18t-18.5 -27t-7 -33.5t7 -33.5t18.5 -27.5t27 -18.5t33.5 -6.5t33.5 6.5t27 18.5t18.5 27.5t7 33.5z
M1175 677q-53 36 -89 90t-50 120q-13 -66 -49 -120t-90 -90h278zM792 954q0 35 -25 60t-61 25q-35 0 -60 -25t-25 -60q0 -36 25 -61t60 -25q36 0 61 25t25 61zM1356 195v264h-554v-264h554z" />
    <glyph glyph-name="new_members" unicode="&#xf00b;" horiz-adv-x="1789" 
d="M988 1104q2 -29 -9 -49t-28 -22q-17 -1 -30.5 18t-15.5 47q-2 29 9 49t28 22t30.5 -17.5t15.5 -47.5zM877 1220q2 -32 -10.5 -56t-32.5 -26t-35.5 20.5t-17.5 55.5q-3 32 9.5 56t32.5 26t36 -20.5t18 -55.5zM734 1293q2 -36 -11.5 -62t-35.5 -28t-39.5 22.5t-19.5 60.5
t11.5 62t35.5 28t39 -22.5t20 -60.5zM582 1327q7 -41 -5.5 -71.5t-36.5 -35.5q-12 -2 -24.5 3.5t-22.5 17.5t-18 28.5t-11 36.5q-4 20 -2.5 38.5t7.5 33t15.5 24t21.5 11.5q24 4 46 -21t30 -65zM420 1304q8 -33 6.5 -64.5t-10.5 -56t-25 -41.5t-38 -21q-21 -4 -43 5t-41 28
t-34 47t-22 62q-8 34 -6.5 65t10.5 56t25 41.5t38 20.5q21 4 43 -5t41 -28t33.5 -47t22.5 -62zM1577 -110l-38 -38q-17 -17 -40.5 -17t-40.5 17l-453 452q-40 -25 -85.5 -38.5t-96.5 -13.5q-11 0 -21 0.5t-21 1.5l-1 -27q5 -134 -37.5 -198t-132.5 -54q-96 11 -122 87
t18 215q7 42 10.5 81t2.5 74q-20 37 -31 79t-11 87q0 8 0.5 16t1.5 16q-17 35 -40.5 65t-51.5 58q-94 94 -83 189t123 178q215 123 432 -97q39 -39 56 -92q55 -15 101.5 -46.5t80.5 -75.5t53 -97.5t19 -113.5q0 -48 -12 -92t-35 -82l455 -453q17 -17 17 -40.5t-17 -40.5z
M1120 598q0 61 -23.5 115t-63.5 94.5t-94.5 63.5t-115.5 23q-62 0 -116 -23t-94 -63.5t-63.5 -94.5t-23.5 -115q0 -62 23.5 -116t63.5 -94t94 -63.5t116 -23.5q61 0 115.5 23.5t94.5 63.5t63.5 94t23.5 116zM1073 598q0 -52 -19.5 -97.5t-53.5 -79.5t-79.5 -53.5
t-97.5 -19.5t-97.5 19.5t-79.5 53.5t-53.5 79.5t-19.5 97.5t19.5 97.5t53.5 79.5t79.5 53.5t97.5 19.5t97.5 -19.5t79.5 -53.5t53.5 -79.5t19.5 -97.5zM1056 598q0 34 -9.5 66t-27 59t-42 49t-53.5 36q-6 -38 -20.5 -81t-37.5 -86q-24 -45 -44 -114t-31 -160q8 -1 16 -1.5
t16 -0.5q48 0 90.5 18.5t74 50t50 74t18.5 90.5z" />
    <glyph glyph-name="last_online" unicode="&#xf00c;" horiz-adv-x="1789" 
d="M1525 1366l-269 -268v50q34 86 65 143.5t62.5 92t66 48.5t75.5 14v-80zM1698 1266q0 -41 -14 -75t-48.5 -65.5t-92 -62.5t-143.5 -65h-50l268 268h80zM1590 1298l-498 -498q10 -17 -4 -31l-163 -163q-8 -8 -18.5 -8t-18.5 8l-6 6l-102 -97l-8 8l94 102l-4 7q-8 8 -8 19
t8 19l162 162q7 7 15.5 8t16.5 -3l497 498zM966 507q0 -40 -15.5 -75t-41.5 -61.5t-61 -41.5t-75 -15t-75.5 15t-61.5 41.5t-41.5 61.5t-15.5 75t15.5 75.5t41.5 61.5t61.5 41.5t75.5 15.5q5 0 9.5 -0.5t9.5 -0.5l-22 -106q-18 0 -33 -7t-26.5 -19t-18 -27.5t-6.5 -33.5
q0 -36 25.5 -61t61.5 -25q18 0 33.5 6.5t27.5 18.5t19 27.5t6 33.5v6l105 21q1 -7 1.5 -13.5t0.5 -13.5zM1209 507q0 -90 -34 -170t-93.5 -139t-139 -93.5t-169.5 -34.5q-91 0 -170.5 34.5t-139 93.5t-93.5 139t-34 170q0 91 34 170.5t93.5 138.5t139 93.5t170.5 34.5
q54 0 104 -12.5t95 -35.5l-89 -88q-26 10 -53.5 14.5t-56.5 4.5q-66 0 -124.5 -25t-102 -68.5t-69 -102t-25.5 -124.5t25.5 -124.5t69 -102t102 -68.5t124.5 -25t124 25t101.5 68.5t69 102t25.5 124.5q0 32 -6.5 62t-17.5 58l88 88q25 -47 38.5 -99t13.5 -109zM1446 507
q0 -93 -24 -179t-68 -160.5t-105 -136t-136 -105t-161 -67.5t-179 -24q-140 0 -262.5 52.5t-214 144t-144.5 213.5t-53 262q0 93 24 179t68 161t105.5 136.5t136 105.5t161 68t179.5 24q112 0 213 -34.5t186 -96.5l-86 -86q-67 46 -146 71.5t-167 25.5q-115 0 -216 -43.5
t-176 -118.5t-118.5 -176t-43.5 -216q0 -76 20 -146.5t56 -132t86.5 -112t112 -86.5t132 -55.5t147.5 -19.5q114 0 215 43.5t176 118.5t118.5 175.5t43.5 214.5q0 91 -27 172t-75 149l86 86q64 -85 100 -188.5t36 -218.5z" />
    <glyph glyph-name="number_of_images" unicode="&#xf00d;" horiz-adv-x="1789" 
d="M1596 747l-832 -831q-133 -90 -253 -78t-230 134q-109 119 -114.5 241t97.5 247l917 917q40 40 83 56.5t88 11t90.5 -30.5t90.5 -68q40 -39 64 -81.5t28.5 -86t-11 -86t-54.5 -80.5l-761 -761q-50 -51 -108.5 -48.5t-110.5 52.5q-34 46 -40.5 97.5t32.5 99.5l581 580
l68 -68l-577 -577q-8 -11 -8.5 -26.5t16.5 -41.5q20 -17 38.5 -17t43.5 20l755 755q91 91 -23 200q-39 36 -70.5 53t-57 19t-47 -8.5t-40.5 -29.5l-915 -916q-79 -95 -73 -181.5t89 -178.5q40 -43 80 -68.5t83 -31.5t89 7.5t98 48.5l825 825z" />
    <glyph glyph-name="drugs" unicode="&#xf00e;" horiz-adv-x="1789" 
d="M931 1150q-3 -2 -6 -3.5t-5 -3.5q2 2 5 3.5t6 3.5zM920 1143q-3 -2 -5.5 -3t-5.5 -3q3 2 5.5 3t5.5 3zM909 1137q-3 -2 -11 -6q8 4 11 6zM889 1126q-3 -1 -5.5 -2t-5.5 -3q3 2 5.5 3t5.5 2zM878 1121q-6 -2 -9 -4q3 2 9 4zM869 1117q-2 -1 -5 -1.5t-5 -2.5q2 2 5 2.5
t5 1.5zM859 1113l-9 -3zM841 1106q-6 -2 -8 -3q2 1 8 3zM833 1103l-9 -3zM824 1100q-3 -1 -6.5 -2t-6.5 -2q3 1 6.5 2t6.5 2zM811 1096q-2 -1 -8 -3q6 2 8 3zM803 1093l-9 -3zM1653 522q-42 -62 -100.5 -64.5t-153.5 55.5q-188 83 -168 -223q8 -51 7 -86.5t-14 -62
t-38 -47.5t-64 -45l-13 -7q-42 -20 -95 -18.5t-116 18.5q-20 5 -39.5 13.5t-41.5 18.5q-225 146 89 416q23 20 33 43.5t7.5 46t-15 41t-34.5 28.5q-44 13 -85 24t-75 23.5t-59.5 27.5t-38.5 37q-37 60 -36 106t21.5 81t51.5 61.5t55 46.5q14 12 28.5 19.5t31.5 13.5
q4 -32 28 -53.5t56 -21.5q35 0 60 25t25 60q0 17 -5.5 31t-14.5 25q-2 -2 -4.5 -2.5t-4.5 -2.5q20 13 42.5 29.5t47.5 39.5q36 33 83 52t96.5 24.5t99 -1.5t91.5 -25t72.5 -47t43.5 -67q19 -57 42.5 -90.5t44 -59t35 -52t15.5 -71.5q51 -102 57.5 -190t-48.5 -170zM1661 143
q2 3 -6 -2t-20.5 -10t-28.5 -6t-29 8q-16 8 -29 11t-22 -2.5t-14.5 -19t-6.5 -38.5q1 -16 3 -25.5t2 -16.5q-6 -45 -132 0l-16 8t-15 8q-19 14 -28.5 23.5t-7 19.5t17.5 22t45 31q17 11 16.5 27t-14.5 24q-30 11 -42.5 24t-20.5 27q-11 21 -6.5 33.5t16 20t26 12.5t23.5 11
t16.5 10t17 9.5t22.5 14t34 22.5t46.5 15.5t49 -6.5t41 -23t22.5 -34t7.5 -30t5.5 -19.5t9 -18t17 -25.5q14 -28 17 -55.5t-16 -49.5zM724 463q0 -42 -24 -64.5t-89 -25.5q-30 -5 -45.5 -13t-17.5 -22t10.5 -36.5t39.5 -55.5q41 -42 44 -79.5t-20 -83.5q-7 -13 -16 -23
t-20 -18q-89 -45 -216 0q-8 13 -16 30.5t-12.5 38.5t-4 46.5t9.5 56.5q4 16 5.5 30.5t-2 25t-11.5 15.5t-22 3q-26 -8 -49 -15.5t-43.5 -12t-37.5 -5.5t-30 5q-38 16 -52.5 41.5t-16 52.5t5 52.5t11.5 42.5q5 18 15 36.5t22.5 38t26 41t25.5 46.5q18 37 49 64.5t67 41.5
t72.5 12.5t64.5 -21.5t50 -28t40.5 -13t34 -13t31.5 -29q58 -31 89.5 -69t31.5 -93zM1321 1156q0 26 -17.5 43.5t-43.5 17.5t-43.5 -17.5t-17.5 -43.5q0 -25 17.5 -43t43.5 -18t43.5 18t17.5 43zM1531 925q0 41 -28 69t-69 28t-69 -28t-28 -69q0 -20 7.5 -37.5t20.5 -31
t31 -21t38 -7.5t38 7.5t31 21t20.5 31t7.5 37.5zM898 1131q-2 -2 -4.5 -2.5t-4.5 -2.5q2 2 4.5 2.5t4.5 2.5zM850 1110q-2 -1 -4.5 -2t-4.5 -2q2 1 4.5 2t4.5 2zM794 1090q-1 0 -1.5 -0.5t-1.5 -0.5q1 0 1.5 0.5t1.5 0.5zM1431 710l-366 184q-101 51 -192 49.5t-167 -39.5
q-17 -6 -29 -23.5t-12 -40.5q0 -26 15.5 -44.5t38.5 -18.5q22 0 38 18.5t16 47.5q48 9 102 5t117 -24q106 -33 183 -63t128 -53q59 -26 99 -49q26 -16 39 -18.5t18 2.5t2.5 15t-7.5 21t-12 20t-11 11zM628 520q0 17 -11.5 29t-28.5 12t-29 -12t-12 -29t12 -28.5t29 -11.5
t28.5 11.5t11.5 28.5zM454 632q0 20 -15 35t-36 15t-35.5 -15t-14.5 -35q0 -21 14.5 -36t35.5 -15t36 15t15 36zM207 437q0 16 -11 27.5t-28 11.5q-16 0 -27 -11.5t-11 -27.5t11 -27t27 -11q17 0 28 11t11 27z" />
    <glyph glyph-name="drinking" unicode="&#xf010;" horiz-adv-x="1789" 
d="M1562 1333q0 -24 -9 -44.5t-24.5 -36t-36 -24.5t-44.5 -9q-17 0 -32 4.5t-28 12.5l-113 -107h151l-542 -542v-662h363v-90h-802v90h348v654l-550 550h988l127 135q-24 30 -24 69q0 24 9 44.5t24.5 35.5t36 24t44.5 9t44.5 -9t36 -24t24.5 -35.5t9 -44.5zM1287 1089h-54
l-379 -361l-19 -19l-325 325h631l52 55h-811l453 -453zM910 826q0 29 -21 50t-50 21q-30 0 -51 -21t-21 -50q0 -30 21 -51t51 -21q29 0 50 21t21 51z" />
    <glyph glyph-name="smoking" unicode="&#xf011;" horiz-adv-x="1789" 
d="M1693 695q0 -66 -15 -126.5t-43 -115.5q-5 2 -11 3.5t-13 3.5q-12 45 -35 87q11 35 17.5 71t6.5 74q0 92 -35 172.5t-95 140.5t-140.5 95t-172.5 35q-85 0 -159 -29t-132 -80q-27 6 -54 9.5t-56 2.5h-14q37 45 83 80.5t99 61t111.5 39t120.5 13.5q111 0 209 -42t171 -115
t115 -171t42 -209zM1697 204q0 -31 -11.5 -58t-31.5 -47.5t-47 -32t-58 -11.5h-1231q-47 0 -89 18t-73 49t-49 73t-18 89t18 88.5t49 72.5t73 49t89 18q20 0 38 -3v19q-2 82 29 154t85 126t127 85t155 31q72 0 136 -24t115.5 -66.5t87 -100.5t49.5 -125q49 19 100 19
q57 0 106.5 -21.5t87 -59t59 -87.5t21.5 -107q8 -1 17 -0.5t17 0.5q31 0 58 -11.5t47 -31.5t32 -47t12 -58zM1596 204q0 20 -14 34t-34 13h-14q-8 -1 -16.5 -0.5t-16.5 1.5l-88 11v89q0 36 -13.5 67.5t-37 55t-55 37t-67.5 13.5q-33 0 -63 -11l-112 -44l-24 118
q-11 50 -37.5 93t-64.5 74.5t-86 49.5t-101 18q-61 0 -115 -23t-94.5 -63t-63.5 -93t-22 -114l3 -141l-121 20q-5 2 -10.5 2h-10.5q-26 0 -49.5 -10t-40.5 -27.5t-27 -40.5t-10 -49q0 -27 10 -50t27 -40.5t40.5 -27.5t49.5 -10h1231q20 0 33.5 14t13.5 34z" />
    <glyph glyph-name="smoking_invert" unicode="&#xf012;" horiz-adv-x="1789" 
d="M1693 697q0 -66 -15 -127t-43 -116q-5 2 -11 3.5t-13 3.5q-16 61 -50.5 112.5t-83 89t-108 58.5t-125.5 21h-14.5t-14.5 -1q-29 66 -75.5 121t-106 95t-130 61.5t-147.5 20.5h-14q37 45 83 81t99 61.5t111.5 39t120.5 13.5q111 0 209 -42.5t171 -115t115 -170.5t42 -209z
M1697 205q0 -31 -11.5 -58t-31.5 -47t-47 -31.5t-58 -11.5h-1231q-47 0 -89 18t-73 49t-49 72.5t-18 88.5t18 89t49 73t73 49t89 18q22 0 38 -4v19q-2 82 29 154t85 126t127 85t155 31q72 0 136 -24t115.5 -66t87 -100t49.5 -126q49 19 100 19q57 0 106.5 -21.5t87 -59
t59 -87t21.5 -106.5q8 -2 17 -1t17 1q31 0 58 -12t47 -32t32 -47t12 -58z" />
    <glyph glyph-name="logo" unicode="&#xf013;" horiz-adv-x="1789" 
d="M1369 1187q19 -57 11 -96.5t-36 -59t-72 -19t-97 21.5q-4 -16 -12 -32q56 -14 92 -40t47.5 -58t-5 -68.5t-65.5 -72.5q-50 -36 -90 -40t-67.5 17.5t-40 65t-7.5 102.5h-16h-10t-10 1q5 -60 -7.5 -103.5t-39.5 -65t-67.5 -17.5t-89.5 40q-50 36 -66 72.5t-4.5 69t48.5 58
t94 39.5q-8 15 -13 33q-54 -22 -98.5 -22.5t-72.5 19t-36.5 58.5t10.5 97q18 57 47 83.5t63 26.5t69 -25t66 -72q6 6 12 11t14 9q-35 45 -47.5 86.5t-1.5 73.5t45.5 51t94.5 18q59 -1 93 -20.5t44.5 -51t-2 -72t-47.5 -83.5q7 -5 13.5 -9.5t13.5 -10.5q31 46 66 71t68 24.5
t62 -27.5t47 -83zM1640 300q19 -57 11 -96t-36 -59t-72 -19.5t-98 21.5q-2 -8 -5 -16t-7 -16q56 -14 92.5 -39.5t47.5 -57.5t-5 -68.5t-65 -71.5q-50 -36 -90 -40t-67.5 17t-40.5 64.5t-8 102.5q-4 0 -7.5 -0.5t-7.5 -0.5q-5 0 -10 0.5t-10 0.5q5 -59 -7.5 -102.5t-40 -64.5
t-68 -17t-89.5 40t-65.5 72t-5 68.5t48.5 58t94 39.5q-8 15 -12 33q-54 -22 -98.5 -23t-72.5 18.5t-36.5 59t10.5 96.5q18 57 47 84t63 27t69 -25t66 -72l12 10t14 10q-35 45 -47.5 86.5t-1.5 73.5t45.5 50.5t94.5 17.5q59 -1 93 -20.5t44.5 -51t-2 -71.5t-47.5 -83
q7 -5 13.5 -10t13.5 -10q30 46 65 71t68.5 24.5t62.5 -27.5t47 -84zM877 558q18 -57 10 -96.5t-35.5 -59t-71.5 -19.5t-98 21q-4 -14 -12 -32q56 -14 92.5 -39.5t47.5 -58t-5.5 -68.5t-65.5 -72q-50 -36 -90 -40t-67 17.5t-40 65t-8 102.5h-16h-9.5t-9.5 1q5 -60 -8 -103.5
t-40 -65t-67.5 -17.5t-89.5 40t-65.5 72.5t-5 69t48.5 58t94 39.5q-8 15 -12 33q-54 -22 -98.5 -23t-72.5 18.5t-36.5 59t10.5 96.5q18 57 47 84t62.5 27t68.5 -25t66 -72q6 6 12.5 10.5t13.5 9.5q-35 45 -47.5 86.5t-1.5 73.5t46 50.5t95 17.5q59 -1 93 -20.5t44.5 -51
t-2.5 -71.5t-48 -83q13 -8 27 -20q31 46 66 71t68.5 24.5t62.5 -27.5t47 -83zM1128 1077q0 24 -9 45.5t-25 37.5t-37.5 25.5t-45.5 9.5t-45.5 -9.5t-37.5 -25.5t-25.5 -37.5t-9.5 -45.5t9.5 -45.5t25.5 -37.5t37.5 -25t45.5 -9t45.5 9t37.5 25t25 37.5t9 45.5zM1399 191
q0 24 -9 45.5t-25 37.5t-37.5 25.5t-45.5 9.5t-45.5 -9.5t-37.5 -25.5t-25.5 -37.5t-9.5 -45.5t9.5 -45.5t25.5 -37.5t37.5 -25.5t45.5 -9.5t45.5 9.5t37.5 25.5t25 37.5t9 45.5zM636 448q0 24 -9.5 45.5t-25.5 37.5t-37.5 25.5t-45.5 9.5t-45.5 -9.5t-37.5 -25.5t-25 -37.5
t-9 -45.5t9 -45.5t25 -37.5t37.5 -25t45.5 -9t45.5 9t37.5 25t25.5 37.5t9.5 45.5z" />
    <glyph glyph-name="occupation" unicode="&#xf014;" horiz-adv-x="1789" 
d="M1707 -35l-148 -131v108h-1299q-15 -60 -57.5 -85t-112.5 -23q98 45 91 131q8 86 -91 129q70 2 112.5 -23t57.5 -84h537v156q-60 37 -86.5 89t-15.5 125q-48 15 -88 52q-29 12 -56 6t-51 -22.5t-44.5 -41.5t-37.5 -49.5t-29.5 -46.5t-20.5 -34q-6 42 1.5 88.5t26.5 92.5
t49 87.5t68 73.5q-46 8 -84 -3t-69.5 -32.5t-55.5 -49.5t-41 -54.5t-27.5 -46.5t-13.5 -27q-8 101 3 171t44.5 112.5t91.5 60t144 14.5q-45 42 -87.5 55t-81 6.5t-71.5 -26.5t-60 -43.5t-47 -46t-31 -32.5q20 103 52.5 181.5t82.5 114t119 20t162 -98.5q-62 189 -157 225.5
t-217 -75.5l-47 -43l19 60q22 72 57.5 115.5t82 60t103.5 9t122 -37.5q104 -75 155 -177t60 -228l190 43q133 31 174 93t3 157q-32 -11 -65 -50q-37 -67 -146 -9q-98 52 6 114q21 12 21.5 23.5t-18.5 21.5q-41 13 -36 30t56 40q30 14 32.5 23.5t-32.5 21.5q-27 9 -36.5 22
t-5 24.5t22 19t44.5 4.5l70 -7q32 6 36.5 14.5t-14.5 27.5q-40 21 -27.5 40.5t66.5 36.5q78 23 116.5 -10t46.5 -121q14 -4 26 -11t24 -16l143 65l-87 -132l4 -6l134 -5l-95 -64v-24l3 -11q162 17 159 -92q-2 -45 -36 -58.5t-91 6.5l3 -27q85 -93 108 -192t-19 -205
q-39 -78 -160.5 -137.5t-319.5 -104.5q-20 -63 -55 -101t-86 -49v-155h679v107zM181 -35v-6v11v-5zM1376 943q-8 64 -24 126.5t-47 119.5q-34 62 -76.5 82t-92.5 0q-48 -19 -55.5 -68.5t34.5 -140.5q16 -33 21.5 -63t3.5 -56h236zM1397 897l-20 -117l-70 83l-45 -96l-38 96
l-76 -86l-10 86q-15 -18 -34 -36t-48.5 -35t-72 -33t-103.5 -29l-191 -41q-2 28 -4 61.5t-7 59.5q-76 238 -215 279q35 -52 58.5 -105t40.5 -106q17 -35 26 -71t18 -66q-31 26 -66 54.5t-71.5 51t-73 34t-70 5t-63.5 -36.5t-53 -91q50 52 103 58.5t103.5 -14t95.5 -59
t80 -77.5q-54 6 -106 7t-94.5 -15t-72 -52.5t-38.5 -105.5q16 27 35 44.5t42 28.5q109 79 292 -2q-24 -4 -48 -11t-49 -18q-44 -35 -79 -76t-51 -98q53 94 138 88q84 92 174 41q-15 93 130 159q-55 -53 -64 -115q85 24 102 -38q-107 -14 -124 -89q51 -5 90 -5t75 7
t72.5 21.5t81.5 37.5q48 24 78.5 49t46.5 54.5t19 64.5t-4 80q113 -106 22 -182q-54 -46 -124.5 -91.5t-158.5 -93.5q78 21 140.5 42.5t112 45.5t88.5 51.5t69 61.5q27 30 39 71.5t12 87.5t-10.5 93t-29.5 88zM944 217q40 109 -3 137h-212q-18 -113 76 -176h75q20 5 35.5 15
t28.5 24zM724 414v45q-61 38 -151 -5q26 -5 53 -16q11 -11 22 -19t22 -14zM1272 1172q0 -33 -23.5 -56.5t-56.5 -23.5t-56.5 23.5t-23.5 56.5t23.5 56.5t56.5 23.5t56.5 -23.5t23.5 -56.5zM1241 1169q1 23 -14 38t-35 15t-35 -15t-15 -35t15 -35t35 -15q13 0 23.5 6t17.5 16
q-10 -10 -23 -10q-14 0 -23 9t-9 23q0 13 9 22.5t23 9.5q12 0 21 -8.5t10 -20.5z" />
    <glyph glyph-name="income" unicode="&#xf015;" horiz-adv-x="1789" 
d="M1381 1348h-986v103h986v-103zM1380 1256q-2 -89 -33 -165.5t-84.5 -136t-126.5 -99.5t-157 -56q1 -5 1.5 -10t0.5 -10v-46v-9q92 -32 174.5 -89t156.5 -141q88 -161 69 -304t-156 -260q-53 -45 -110.5 -67t-115 -26t-114 8.5t-107.5 36t-94.5 56t-74.5 69.5
q-97 116 -131.5 221.5t-6.5 205.5q57 -109 115.5 -190.5t119.5 -135.5q253 -223 445 -46q204 241 -69 450q-149 75 -224 122.5t-76 80.5q-3 9 -3 18v46q0 6 1 12t3 11q-82 18 -152 58.5t-122 99t-82 133.5t-31 162z" />
    <glyph glyph-name="education" unicode="&#xf016;" horiz-adv-x="1789" 
d="M1698 807l-123 -228q-27 28 -62.5 45.5t-77.5 21.5l141 281zM1538 927l-67 -136h-115l-68 136h250zM1391 646q-41 -4 -76.5 -21.5t-63.5 -45.5l-122 228l122 120zM1605 421q0 -39 -15 -74t-41 -61t-61 -41t-75 -15q-35 0 -67 12t-58 34q11 47 11 92q0 46 -10 88.5
t-28 81.5q26 35 65.5 55t86.5 20q40 0 75 -15t61 -41t41 -61t15 -75zM1227 368q0 -68 -26 -128t-71 -105t-105 -71t-128 -26t-128 26t-105 71t-71 105t-26 128q0 60 20.5 114.5t56.5 97.5t85.5 72t106.5 40q10 30 37 41v58h-24l-191 218v253h473v-253l-191 -218h-24v-56
q32 -10 42 -43q57 -11 106.5 -40t85.5 -72t56.5 -97.5t20.5 -114.5zM660 807l-122 -228q-28 28 -63.5 45.5t-76.5 21.5l140 281zM501 927l-68 -136h-115l-67 136h250zM354 646q-42 -4 -77.5 -21.5t-62.5 -45.5l-123 228l122 120zM531 534q-17 -38 -26.5 -79.5t-9.5 -86.5
q0 -23 2.5 -45t7.5 -43q-26 -23 -58.5 -36.5t-70.5 -13.5q-40 0 -75 15t-61 41t-41 61t-15 74q0 40 15 75t41 61t61 41t75 15q48 0 88.5 -21.5t66.5 -57.5zM1207 367q0 64 -24.5 120.5t-66.5 98.5t-98.5 66t-120.5 24t-120.5 -24t-98.5 -66t-66 -98.5t-24 -120.5t24 -120.5
t66 -98.5t98.5 -66.5t120.5 -24.5t120.5 24.5t98.5 66.5t66.5 98.5t24.5 120.5zM1164 369q0 -56 -21 -104.5t-57 -84.5t-85 -57t-104 -21t-103.5 21t-84.5 57t-57 84.5t-21 104.5q0 55 21 103.5t57 84.5t84.5 57t103.5 21t104 -21t85 -57t57 -84.5t21 -103.5z" />
    <glyph glyph-name="kids" unicode="&#xf017;" horiz-adv-x="1789" 
d="M1645 1136q37 -72 9 -121.5t-118 -77.5l16 -66q79 -93 10 -138l-96 -90q-20 -19 -54 -24t-81 1v76h-109l-176 251l103 37q19 19 0 43l-251 182v52l-30 14q-6 -15 -16 -23t-21 -6t-24 15.5t-25 42.5q3 26 13.5 44t39.5 32q55 -9 69 -59l40 -17l397 -218l29 -30h60
q-6 33 -9 61t-0.5 49t11.5 33t28 13q23 4 48 5t49.5 -5.5t47 -24t40.5 -51.5zM1281 610q0 -18 -12.5 -30.5t-30.5 -12.5t-30.5 12.5t-12.5 30.5t12.5 30.5t30.5 12.5t30.5 -12.5t12.5 -30.5zM1393 409q4 -13 -1.5 -23t-15 -14t-20 -0.5t-15.5 16.5l-53 149q-5 13 1 23
t15.5 14t20 0.5t15.5 -16.5zM1233 513l-11 -157q-1 -14 -9.5 -20.5t-18 -5.5t-17 8.5t-6.5 21.5l6 155q1 14 10 20.5t19.5 6t19 -7.5t7.5 -21zM1218 -166h-234q-12 66 13 90l3 62l-142 49v605q7 7 8.5 16.5t0 20t-3.5 20t-2 16.5l-297 294l-241 129v129l-162 132
q-58 46 10 46q33 5 61.5 -0.5t47.5 -35.5l62 -73q14 0 41 -16t68.5 -44.5t98 -68.5t130.5 -89l277 -185l179 -222q53 -81 0 -181l-27 -33l-59 -512l6 -33l133 -76l29 -3q20 -17 20 -27t-20 -10z" />
    <glyph glyph-name="status" unicode="&#xf018;" horiz-adv-x="1789" 
d="M1691 582h-135v-35l-337 -179v-25h-111v79h57v106h-57v239h57v106h-57v78h111v-24l337 -179v-36h135v-130zM896 422h-218v-79h-111v25l-337 179v35h-141v130h141v36l337 179v24h111v-78h218v-106h-218v-239h218v-106z" />
    <glyph glyph-name="critters" unicode="&#xf019;" horiz-adv-x="1789" 
d="M1785 864q-99 -130 -105 -253t71 -238v-47l-255 230v129l289 216v-37zM1455 612h-79q-1 -50 23 -101q-28 14 -41 41.5t-12 59.5h-89q-5 -78 33 -153q-42 20 -61 62.5t-17 90.5h-109q-6 -100 43 -199q-55 26 -79.5 81t-22.5 118h-111q-6 -122 53 -243q-33 16 -57.5 41.5
t-40 58t-22.5 69t-6 74.5h-100q-6 -145 63 -286q-39 18 -67.5 48.5t-47 68t-27 81t-8.5 88.5h-63q-28 42 6 76l64 -4q8 44 24 85.5t40 76t54.5 59.5t68.5 37q-40 -66 -64.5 -131.5t-35.5 -130.5l100 -5q7 36 20.5 70t33 62t45.5 48.5t57 30.5q-65 -111 -83 -215l111 -6
q11 57 43 103t81 62q-50 -86 -66 -168l109 -6q10 42 34 75.5t60 45.5q-37 -62 -49 -123l87 -5q7 29 23.5 51t40.5 30q-24 -42 -33 -82l74 -4v-32zM484 531q-69 -119 -148 -142t-169 38l-167 113q32 68 73.5 131t83.5 108q78 85 144 121t123 20q119 -32 135.5 -131
t-75.5 -258zM449 678q0 41 -28 69.5t-69 28.5t-69 -28.5t-28 -69.5t28 -69t69 -28t69 28t28 69z" />
    <glyph glyph-name="hobbies" unicode="&#xf01a;" horiz-adv-x="1789" 
d="M1596 831q0 -117 -40 -220t-111 -184v-311l-799 -281v204h-176q-51 0 -75 20t-24 68v315l-121 4q-38 6 -40.5 27.5t29.5 60.5q52 63 85 145.5t41 185.5q6 81 31.5 155.5t66 139t96 117.5t121.5 90.5t142 58t158 20.5q127 0 239.5 -48.5t196 -131.5t132 -195.5
t48.5 -239.5zM1414 874q0 12 -8 20t-20 9l-73 1q-4 0 -5 -1q-7 26 -16.5 50.5t-21.5 47.5l52 51q8 8 8.5 19.5t-7.5 19.5l-72 75q-8 8 -20 8.5t-20 -7.5l-56 -55q-22 13 -45.5 23t-49.5 16v6l-1 73q0 11 -8.5 19t-19.5 8l-104 -2q-12 0 -20 -8.5t-8 -19.5l2 -76
q-26 -6 -50.5 -15.5t-49.5 -19.5l-53 51q-8 8 -19.5 7.5t-19.5 -8.5l-72 -75q-8 -8 -8 -19.5t8 -19.5l55 -53q-14 -22 -24.5 -46t-18.5 -50l-73 1q-11 0 -19.5 -8t-8.5 -20l-2 -104q0 -11 8 -19.5t19 -8.5l73 -1h6q7 -26 16.5 -50t21.5 -48l-53 -50q-8 -8 -8 -20t8 -20
l72 -75q8 -8 19.5 -8t19.5 8l57 55q22 -14 46 -24t50 -19l-2 -73q0 -11 8 -19.5t20 -8.5l104 -2q11 0 19.5 8t8.5 20l1 73v6q26 6 50 15t49 19l52 -50q8 -8 20 -8t20 8l72 75q8 8 7.5 20t-8.5 20l-54 52q14 23 24 47t19 50l73 -1q11 -1 19.5 7.5t8.5 19.5zM1156 823
q0 -36 -14 -68t-38 -56t-56 -38t-68 -14t-68 14t-56 38t-38 56t-14 68t14 68t38 56t56 38t68 14t68 -14t56 -38t38 -56t14 -68z" />
    <glyph glyph-name="lifestyle" unicode="&#xf01b;" horiz-adv-x="1789" 
d="M1492 1117q16 -107 -3 -201.5t-69 -175.5t-128 -148t-180 -120q78 166 97 311.5t-14.5 262.5t-116.5 201t-210 128q60 40 127 56.5t132.5 12t126.5 -29t110 -66.5t83 -100.5t45 -130.5zM1044 1163q71 -106 90 -216.5t-7.5 -221.5t-95 -220.5t-172.5 -213.5q-4 -41 39 -35
l50 6l10 -44l-200 -38l-10 41q73 9 51 61q-89 39 -165 93.5t-135.5 119.5t-101.5 136t-64.5 143t-24.5 141.5t20 129.5q29 82 81 141t116.5 95t137 47t142 -3t132 -54.5t107.5 -107.5zM884 113q-8 -26 -18 -49.5t-27 -44.5q-12 -9 -16 -16.5t-1.5 -14.5t9.5 -15.5t18 -20.5
q22 -26 27.5 -47.5t0 -37t-17.5 -25t-24.5 -10t-22.5 9t-10 29.5q0 10 -2.5 17t-6.5 12q-20 21 -33 43t-16 43.5t6.5 43t33.5 42.5q16 22 26 60q5 18 19 24.5t28 3t23 -16t4 -30.5zM735 1170q-31 56 -84 63.5t-132 -35.5q-47 -32 -77 -83.5t-39 -110.5t4.5 -119.5
t54.5 -109.5q38 103 210 232q100 96 63 163z" />
    <glyph glyph-name="demeanour" unicode="&#xf01c;" horiz-adv-x="1789" 
d="M1613 -24h-209v-141h-1015v141h-209v1157q322 84 508 254q-6 -44 26 -82l22 -355q18 -295 90 -306q-12 287 44 571l-119 -82q59 118 119 172q-52 22 -91.5 48t-68.5 55q10 9 19 18.5t18 19.5h299q9 -10 18 -19.5t19 -18.5q-58 -59 -160 -103q60 -54 119 -172l-119 82
q56 -284 44 -571q72 10 90 306l22 355q32 38 26 82q186 -170 508 -254v-1157zM968 421q0 26 -19 45t-45 19t-44.5 -19t-18.5 -45t18.5 -44.5t44.5 -18.5t45 18.5t19 44.5zM968 106q0 26 -19 45t-45 19t-44.5 -19t-18.5 -45t18.5 -44.5t44.5 -18.5t45 18.5t19 44.5z" />
    <glyph glyph-name="best_part" unicode="&#xf01d;" horiz-adv-x="1789" 
d="M1704 1110q0 -30 -11 -56t-30.5 -45.5t-45.5 -30.5t-56 -11t-56 11t-45.5 30.5t-30.5 45.5t-11 56t11 56t30.5 45.5t45.5 30.5t56 11t56 -11t45.5 -30.5t30.5 -45.5t11 -56zM1609 370h-422l271 533h151v-533zM1036 1110q0 -30 -11 -56t-30.5 -45.5t-45.5 -30.5t-56 -11
t-56 11t-45.5 30.5t-30.5 45.5t-11 56t11 56t30.5 45.5t45.5 30.5t56 11t56 -11t45.5 -30.5t30.5 -45.5t11 -56zM1108 370h-430l151 533h128zM376 1110q0 -30 -11 -56t-30.5 -45.5t-45.5 -30.5t-56 -11t-56 11t-45.5 30.5t-30.5 45.5t-11 56t11 56t30.5 45.5t45.5 30.5
t56 11t56 -11t45.5 -30.5t30.5 -45.5t11 -56zM1609 36h-1448v191h1448v-191zM583 370h-422v533h151z" />
    <glyph glyph-name="sign" unicode="&#xf01e;" horiz-adv-x="1789" 
d="M1694 818l-456 -373l150 -569l-496 317l-496 -317l149 569l-456 373l588 34l215 549l214 -549zM1387 718l-363 22l-132 339l-133 -339l-363 -22l281 -230l-92 -352l307 196l306 -196l-92 352z" />
    <glyph glyph-name="sign_invert" unicode="&#xf021;" horiz-adv-x="1789" 
d="M1694 818l-456 -373l150 -569l-496 317l-496 -317l149 569l-456 373l588 34l215 549l214 -549z" />
    <glyph glyph-name="eye" unicode="&#xf022;" horiz-adv-x="1789" 
d="M1470 88q-69 -93 -154.5 -148t-180.5 -78t-195 -16.5t-197 37t-187.5 82.5t-165.5 120q-90 99 -138.5 218.5t-56.5 247.5t23.5 257.5t101.5 248.5q90 154 204 241t246 124.5t280.5 36.5t307.5 -22q35 -5 49.5 -28.5t10.5 -49.5q-4 -27 -23.5 -46t-54.5 -14
q-154 20 -285 20t-241 -33.5t-201.5 -107t-165.5 -199.5q-61 -104 -85 -212.5t-16.5 -212t44 -198t96.5 -171.5q79 -71 162 -116t165.5 -66.5t161.5 -20.5t149 22t128.5 62t101.5 99q53 74 79.5 149.5t29 147t-16.5 137t-56 119.5t-90.5 93.5t-119.5 58.5q-86 16 -155 7
t-118.5 -42t-78 -90.5t-32.5 -136.5q-3 -46 6.5 -77.5t26 -50.5t38.5 -27.5t45 -8.5h21l-5 21q-3 15 -3 32q0 38 17 68.5t45 47.5q9 6 19 9q19 8 39 8q25 0 47 -10t38.5 -28t26 -42.5t9.5 -52.5q0 -34 -13.5 -62t-36.5 -46q-48 -53 -102.5 -74t-107 -16.5t-100.5 31.5
t-83 69.5t-53.5 97.5t-12.5 117q11 117 57 201t119.5 133.5t170.5 64t208 -6.5q112 -33 190.5 -91.5t126.5 -134.5t66.5 -164.5t10 -179.5t-43 -180.5t-92.5 -167.5z" />
    <glyph glyph-name="weight" unicode="&#xf023;" horiz-adv-x="1789" 
d="M1697 441h-164v375h164v-375zM1444 283h-153v691h153v-691zM1201 541h-621v176h621v-176zM495 283h-152v691h152v-691zM254 441h-165v375h165v-375z" />
    <glyph glyph-name="height" unicode="&#xf024;" horiz-adv-x="1789" 
d="M1694 1138h-247v-260h-266v-273h-260v-288h-281v-232h-267v-239h-191v430h267v233h280v287h260v274h267v260h438v-192zM907 871h-33l-134 134l-364 -364q-16 -16 -36.5 -24t-41.5 -8t-41 8t-36 24l-98 98q-16 16 -24 36t-8 41t8 41.5t24 36.5l364 364l-127 127v33h547
v-547z" />
    <glyph glyph-name="intention" unicode="&#xf025;" horiz-adv-x="1789" 
d="M1391 1151q-160 -133 -372 -200l11 495zM1691 -10l-37 -19l-162 347l-446 573q208 65 370 197l249 -761l-104 -59zM1467 266l-248 -263q34 110 55.5 226.5t29.5 241.5zM736 1225q-155 -236 -435 -444l-203 665zM1184 622q0 -153 -20.5 -293t-59.5 -271l-165 153
q40 147 58 304.5t11 326.5zM868 1018q24 -192 14 -369.5t-48 -340.5l-175 163q27 133 37 272t0 288q22 26 41.5 51.5t38.5 51.5zM1608 -125q-2 -31 -39 -40l-239 242l39 41zM576 902q0 -86 -6.5 -168t-19.5 -162l-172 160q54 42 103.5 84t94.5 86z" />
    <glyph glyph-name="language" unicode="&#xf026;" horiz-adv-x="1789" 
d="M1403 600q-7 -88 -41 -166t-90 -141q-26 17 -50.5 31t-50.5 26q28 27 49 49t35 37q26 28 64.5 69.5t83.5 94.5zM1651 -81q-45 -42 -103 -53t-123.5 1.5t-135 44t-138.5 73t-134 88.5t-121 92q-65 -53 -136 -104.5t-142.5 -93.5t-141 -70.5t-132 -37t-116 7.5t-91.5 64
q-75 92 -37.5 231t192.5 332q-18 72 -18 149q0 18 1 35.5t3 34.5q8 -10 15.5 -19.5t15.5 -19.5q-1 -8 -1 -15.5v-15.5q0 -79 20.5 -152t57.5 -136.5t89.5 -116t115.5 -89.5q-8 -5 -16.5 -10t-16.5 -10q-68 43 -122 101t-92 128q-59 -79 -87.5 -137.5t-37.5 -100t-3 -68.5
t18 -44q11 -11 33.5 -17.5t59 -3t87.5 20.5t119 53q61 33 128.5 78.5t139.5 103.5q-42 37 -68 59q-28 24 -79.5 72t-114 112.5t-130.5 141.5t-128.5 159t-108 164.5t-69 159t-11 142.5t64.5 114q90 79 231 46t341 -183q72 18 150 18q45 0 88.5 -6t85.5 -19q35 26 78.5 55.5
t92.5 56t102 47t106 28.5t105 0.5t100 -37.5q40 -46 49 -103t-4.5 -120.5t-46 -131t-75 -134t-91.5 -129.5t-95.5 -117.5t-86.5 -98t-66 -71.5q-29 -31 -88 -89.5t-139 -129.5q46 -36 98.5 -73.5t106 -71.5t106 -61.5t99 -43.5t84.5 -17.5t64 16.5q12 24 12 59t-14.5 81
t-46 104t-83.5 129q-70 -139 -198 -227l-31 20q58 38 106.5 89.5t82.5 113t52.5 131.5t17.5 145v13q8 10 16 19.5t16 20.5q3 -27 3 -53q0 -69 -15 -132q26 -33 58 -76t62 -92t54 -102.5t35.5 -108t6 -109t-34.5 -104.5zM1227 248q-35 -30 -77 -56l-37 27q10 18 18.5 36
t16.5 37q20 -10 39.5 -20.5t39.5 -23.5zM975 45q-23 -4 -47 -6t-49 -2q-17 0 -33 1t-33 3q11 8 21 15.5t20 15.5h25q14 0 28 0.5t28 1.5zM603 354q-29 -14 -56.5 -30.5t-54.5 -36.5q-59 64 -95 144.5t-43 172.5h14q62 -72 122.5 -134t110.5 -110zM669 202q-9 -7 -17.5 -13
t-17.5 -12q-51 28 -97 66q42 29 88 52q10 -23 20.5 -46.5t23.5 -46.5zM1554 1277q-24 12 -57.5 13.5t-78.5 -11t-102.5 -40.5t-128.5 -75q66 -38 119 -91t92 -118l-21 -31q-37 65 -89.5 118.5t-116.5 91.5t-138 59t-154 21q-79 0 -152 -20.5t-136.5 -57.5t-115.5 -89.5
t-89 -115.5q-6 8 -11 16l-10 16q42 67 99 121t127 92q-81 55 -140 82t-101 34.5t-69 0t-43 -19.5q-11 -11 -17 -34t-0.5 -59.5t24.5 -87t57 -116.5q72 -125 200.5 -273t311.5 -306q11 -10 32.5 -28t51.5 -43q57 50 114.5 106.5t116.5 120.5q13 14 42.5 46t67.5 76.5t82 98.5
t85 111t77 114.5t58 109.5t27 95.5t-14 72.5zM1237 1028q-23 -15 -47 -28t-47 -24q-29 77 -74 158q95 -38 168 -106zM1347 883q-35 -47 -70.5 -90t-67.5 -81q-10 101 -45 205q29 14 58.5 30t58.5 35q39 -45 66 -99zM1086 952q-87 -33 -172 -39v255q36 -3 69 -9
q32 -54 57.5 -105t45.5 -102zM1150 666h-236v185q48 2 96 13t97 29q37 -114 43 -227zM852 912q-84 4 -165 36q20 53 46.5 106t59.5 108q28 4 59 6v-256zM708 1141q-23 -43 -42.5 -84.5t-36.5 -83.5q-26 13 -51 28t-50 33q78 70 180 107zM1113 604l-18 -20q-42 -45 -83 -86.5
t-81 -79.5l-17 2v184h199zM852 666h-229q8 111 43 223q91 -35 186 -39v-184zM608 913q-17 -53 -28 -104.5t-16 -103.5q-44 48 -81 94t-69 90q14 27 31.5 52t37.5 48q63 -45 125 -76zM852 426l-8 6q-51 44 -96.5 87t-87.5 85h192v-178z" />
    <glyph glyph-name="orientation" unicode="&#xf027;" horiz-adv-x="1789" 
d="M902 1015q131 -113 122.5 -242t-141.5 -262q-15 -15 -32.5 -13.5t-29 13t-13.5 29t13 32.5q57 57 86 108t31 97.5t-21.5 88.5t-70.5 83q-17 14 -16.5 31t11 29.5t27.5 16t34 -10.5zM1696 265q0 -42 -29 -70.5t-71 -28.5q-5 0 -10.5 0.5t-10.5 1.5l-794 -29q-12 -4 -27 -4
q-35 0 -60 25t-25 60q0 17 6 32t17 26l61 96q13 27 -19 34q-35 -7 -104 -58q-10 23 -25 46.5t-38 47.5q-27 29 -59.5 26.5t-54.5 -21.5q-11 -10 -18 -23.5t-8.5 -28.5t3 -31t18.5 -31q13 -14 22 -26.5t13 -23.5q-39 10 -64.5 42.5t-25.5 74.5q0 25 9.5 46.5t26 38t38.5 26.5
t47 10q78 18 131.5 36.5t82.5 40.5q37 27 68 44t59 23q-24 -33 -60 -69q-14 -14 -19.5 -30t-4.5 -31t7.5 -29t16.5 -24t24 -16.5t29 -7.5t31 4.5t30 19.5q50 50 85 103q17 -49 -27 -111l-96 -133q-13 -23 -4 -36.5t38 -13.5h93l139 258q9 16 10.5 34t-6.5 40l-80 140
q6 73 -27 143t-108 135q-15 13 -31 17.5t-31.5 2t-28.5 -10t-22 -18.5t-14.5 -25t-5.5 -29.5t6.5 -31t21.5 -28.5q50 -41 70 -87h-8q-31 -1 -58 10.5t-47.5 32t-32 48t-11.5 58.5t11.5 58t32 47t47.5 31.5t58 11.5q22 0 43 -6q225 -33 401 -288q52 -76 52.5 -146t-37.5 -139
l-84 -152q-30 -56 25 -59l301 24h9q22 0 40.5 -7.5t32.5 -21t22 -31.5t8 -39zM672 1040q0 -31 -12 -58.5t-32.5 -48t-48.5 -32.5t-59 -12q-32 0 -59.5 12t-48 32.5t-32.5 48t-12 58.5t12 59t32.5 48.5t48 32.5t59.5 12q31 0 59 -12t48.5 -32.5t32.5 -48.5t12 -59zM540 419
q48 -53 62.5 -102t-1 -93t-58.5 -82t-110 -68q-20 -9 -35.5 -1t-22.5 22.5t-2.5 31.5t24.5 26q55 25 84.5 49.5t37.5 49.5t-4 51.5t-39 56.5q-15 16 -12 33t15 28t29 12.5t32 -14.5zM350 467q0 -27 -10.5 -50.5t-28 -41.5t-41.5 -28t-51 -10t-50.5 10t-41 28t-28 41.5
t-10.5 50.5t10.5 50.5t28 41.5t41 28t50.5 10t51 -10t41.5 -28t28 -41.5t10.5 -50.5zM1593 364h-9h9z" />
    <glyph glyph-name="appearance" unicode="&#xf028;" horiz-adv-x="1789" 
d="M1698 742q-21 -105 -71 -179.5t-118.5 -119.5t-149 -59t-162.5 2t-160.5 63t-142.5 125q-64 -78 -142.5 -125t-161 -63t-163 -2t-149 59t-118.5 119.5t-71 179.5q95 -74 186.5 -56t188.5 123q102 109 210 105.5t220 -115.5q111 112 219.5 115.5t209.5 -105.5
q97 -105 188.5 -123t186.5 56z" />
    <glyph glyph-name="ethinticity" unicode="&#xf029;" horiz-adv-x="1789" 
d="M1695 299q0 -34 -24 -57.5t-58 -23.5h-519l-202 201l-202 -201h-519q-34 0 -58 23.5t-24 57.5v242v96v87l445 378q45 38 82.5 31.5t54.5 -63.5l-6 -105q-20 -35 -35 0v53q-2 10 -7.5 18t-15 10t-24.5 -3.5t-34 -21.5l-186 -256q-16 -22 -16 -47h498h93h499q0 25 -16 47
l-186 256q-20 16 -34.5 21.5t-24 3.5t-15.5 -10t-7 -18v-53q-15 -35 -35 0l-6 105q17 57 54.5 63.5t82.5 -31.5l445 -378v-87v-96v-242zM1625 285v352q0 11 -12 11h-1442q-12 0 -12 -11v-352q0 -12 12 -12h490l190 204h82l189 -204h491q12 0 12 12zM1538 381
q0 -20 -13.5 -33.5t-33.5 -13.5h-283q-63 38 -111 98t-80 129q3 17 6 20t20 3h448q20 0 33.5 -13t13.5 -33v-157zM767 561q-32 -69 -80 -129t-111 -98h-283q-20 0 -33.5 13.5t-13.5 33.5v157q0 20 13.5 33t33.5 13h448q17 0 20 -3t6 -20z" />
    <glyph glyph-name="distance" unicode="&#xf02a;" horiz-adv-x="1789" 
d="M1696 815q1 -31 -41 -8q-55 37 -126 10q-148 -90 -220 -84q-65 62 -104 204q-119 -108 -185 -92q-38 2 -71 -2t-63 -15l5 -49q208 -129 217 -330q-7 -17 -27 -29.5t-53 -23.5q-30 -10 -71 -18.5t-86 -19t-90 -25.5t-82 -39q-3 -45 -19 -100q3 -22 13 -39q24 -14 3 -32
q-55 6 -70 74q0 79 -31 110q-12 27 1.5 45t46.5 14q39 -4 79.5 10t70.5 43q27 15 46 27.5t36 22.5t34 17.5t40 12.5q-5 23 -20.5 33.5t-40 20t-56.5 23.5t-71 45q2 -41 -41 -108.5t-131 -169.5q-32 -12 -56 -20.5t-40 -13.5q-19 -6 -32 -10q-60 -20 -124.5 -56.5
t-137.5 -84.5q-1 -22 -5 -47t-11 -54q3 -25 13 -38q23 -13 3 -32q-55 6 -71 73q-1 77 -33 109q-12 26 1 44t46 16q39 -4 67 11.5t58 45.5q90 90 149.5 122.5t98.5 24.5l57 101q-13 133 85 218q-66 159 68 207l194 112q58 18 49 55q-40 12 -60 59q-56 -23 -169 -5
q-37 1 -60.5 -4t-46.5 -26q-32 -30 -70 -31.5t-90 37.5q-27 20 -10.5 27t61.5 -11q47 -7 58 22q-28 16 24 19l93 5q50 17 94 35t83 36q53 -12 79 -44l145 -139q70 21 120 -30q16 70 54 93q89 39 136 -76q5 -18 4 -39q-1 -18 -6.5 -42.5t-21.5 -52.5l-55 -8l-38 -25
q13 -20 24 -45.5t22 -57.5q11 -5 32.5 -2t68.5 10l104 41q9 12 21.5 12.5t23.5 -3t17.5 -8t5.5 -1.5q61 -19 85 -57z" />
    <glyph glyph-name="like_4" unicode="&#xf02b;" horiz-adv-x="1789" 
d="M1620 815q27 -18 41.5 -44.5t18 -55t-2 -57t-19 -51.5t-34 -37t-45.5 -14h-303q-82 0 -54 -82l60 -117q17 -70 -0.5 -149t-65.5 -170q-27 -50 -73.5 -56.5t-116.5 31.5l19 92q14 66 13 121t-32 100l-142 205q-82 120 -195 132q-148 -13 -133 16q60 50 64 110h-206
q-6 -29 -20.5 -53t-36 -42t-48.5 -28t-57 -10q-35 0 -65 13t-53 36t-36 53t-13 65q0 38 16 70.5t42 55.5q-26 23 -42 55.5t-16 70.5q0 34 13 64.5t36 53t53 35.5t65 13q31 0 59 -11t49.5 -30t36 -45t19.5 -56h198q-5 29 -20 56.5t-41 56.5q15 15 170 4q67 37 137 59.5
t144 22.5h471q177 -59 110 -218q45 -17 71.5 -52t32.5 -75t-10.5 -78t-58.5 -60zM617 834q-10 51 -58 113q49 53 56 107h-242q0 27 -7 53t-22 45.5t-37.5 31.5t-54.5 12q-25 0 -47 -9.5t-38.5 -26t-26 -38.5t-9.5 -47q0 -27 8 -46t21.5 -33t32 -25t38.5 -22l-37 -20
q-29 -16 -46 -44t-17 -62q0 -25 9.5 -47t26 -38.5t38.5 -26t47 -9.5q30 0 52 11t37 29t23 42t10 50h243z" />
    <glyph glyph-name="like_3" unicode="&#xf02c;" horiz-adv-x="1789" 
d="M1693 958q-63 -926 -501 -940q-472 30 -508 940q480 -250 1009 0zM1098 1296q-7 -103 -18.5 -192.5t-27.5 -170.5q-61 12 -104 22.5t-77 21.5t-62.5 24.5t-61.5 31.5q-66 19 -99 3.5t-39 -66.5q-6 -48 -9.5 -96t0.5 -96q-51 0 -96 -17t-78.5 -46t-53 -68t-20.5 -84
q40 47 104 74.5t141 27.5h18q28 -140 107 -283q-29 -12 -60.5 -18t-64.5 -8q-474 30 -508 940q480 -250 1009 0zM1536 644q-16 49 -39 74t-49.5 31t-54.5 -6t-52 -36.5t-42 -60t-26 -77.5q61 37 129.5 56t133.5 19zM1110 569q-8 42 -26 77.5t-42 60t-51.5 36.5t-54 6
t-50 -31t-39.5 -74q66 0 134.5 -19t128.5 -56zM1436 390q-40 -47 -104 -75t-140 -28q-77 0 -141 28t-104 75q1 -45 20.5 -84t52.5 -68t77.5 -46t94.5 -17t94 17t77 46t52.5 68t20.5 84zM495 1043q-59 -27 -129 -39t-141 -4q25 -35 56.5 -59.5t63.5 -36.5t62 -11t51.5 17.5
t32 49t4.5 83.5z" />
    <glyph glyph-name="like_2" unicode="&#xf02d;" horiz-adv-x="1789" 
d="M1702 640q0 -111 -29 -214t-81.5 -192.5t-126 -163t-163 -126t-192.5 -81t-214 -28.5t-214 28.5t-192.5 81t-163 126t-126 163t-81.5 192.5t-29 214t29 214t81.5 192.5t126 163t163 126t192.5 81.5t214 29t214 -29t192.5 -81.5t163 -126t126 -163t81.5 -192.5t29 -214z
M1602 640q0 97 -25 187.5t-71 169t-110.5 143t-143 110.5t-169 71t-187.5 25q-98 0 -188 -25t-168.5 -71t-143 -110.5t-110.5 -143t-71 -168.5t-25 -188t25 -188t71 -168t110.5 -142.5t143 -110.5t169 -71t187.5 -25t187.5 25t169 71t143 110.5t110.5 142.5t71 168.5
t25 187.5zM1414 790q0 -88 -65.5 -132t-189.5 -39q-116 5 -173 74t-57 194h-91q0 -125 -57 -194t-173 -74q-124 -5 -189.5 39t-65.5 132v163h455h151h455v-163zM1209 438q-17 -50 -47.5 -92t-72 -72t-92 -47t-105.5 -17q-54 0 -103 16t-90 45t-72 69t-49 88q67 -32 144 -50
t161 -18q91 0 173.5 20.5t152.5 57.5z" />
    <glyph glyph-name="like_2_invert" unicode="&#xf02e;" horiz-adv-x="1789" 
d="M1702 640q0 -111 -29 -214t-81.5 -192.5t-126 -163t-163 -126t-192.5 -81t-214 -28.5t-214 28.5t-192.5 81t-163 126t-126 163t-81.5 192.5t-29 214t29 214t81.5 192.5t126 163t163 126t192.5 81.5t214 29t214 -29t192.5 -81.5t163 -126t126 -163t81.5 -192.5t29 -214z
M1414 790v163h-455h-151h-455v-163q0 -88 65.5 -132t189.5 -39q116 5 173 74t57 194h91q0 -125 57 -194t173 -74q124 -5 189.5 39t65.5 132zM1209 438q-70 -37 -152.5 -57.5t-173.5 -20.5q-84 0 -161 18t-144 50q18 -48 49 -88t72 -69t90 -45t103 -16q55 0 105.5 17t92 47
t72 72t47.5 92z" />
    <glyph glyph-name="like_1" unicode="&#xf02f;" horiz-adv-x="1789" 
d="M1615 1010l-24 -18l16 33zM1602 1034l-99 -86l22 55l-107 -106l20 55l-100 -114l18 55l-92 -122l13 56l-82 -129l7 52l-68 -132l-8 35l-48 -119l-7 27l-20 -45l-25 -70l-2 9l-35 -76l-11 -25l-61 -100l39 123l12 26l41 92l-19 -11l58 125l-33 -20l52 126l-31 -21l45 150
l-33 -44l33 158l-31 -52l19 160l-27 -54l8 159l-25 -56l-3 159l-24 -58l-14 159l-21 -61l-21 132q106 -6 204.5 -38t183 -86t154 -127t118.5 -161zM1704 640q0 -81 -15.5 -158t-44.5 -148l-116 -9l49 25l-149 -24l43 28l-143 -34l21 26l-120 -40l19 26l-301 -114l313 151
l-13 3l118 52l-35 5l130 73l-52 -8l127 85l-56 -14l119 95l-55 -19l111 103l-54 -21l85 92q10 -42 14.5 -86t4.5 -89zM1452 54l-11 -10l-22 17zM869 252l-99 203l-3 -9l-33 96l-10 24l-9 -32l-48 119l-7 -35l-68 132l6 -52l-81 129l13 -56l-92 122l17 -55l-99 114l19 -55
l-106 106l22 -55l-99 86q48 87 116.5 159.5t152 126.5t180 86.5t201.5 39.5l-22 -132l-20 61l-15 -159l-23 58l-3 -159l-26 56l9 -159l-28 54l20 -160l-31 52l33 -158l-33 44l45 -150l-31 21l51 -126l-29 18l23 -54l31 -69zM1435 39q-55 -49 -116 -86l-26 18l41 -8l-107 61
l28 4l-98 45h2l-228 115l307 -119l-16 26l116 -48l-19 28zM837 229l-274 79l-118 38l20 -26l-142 34l43 -28l-150 24l50 -25l-116 9q-29 71 -44.5 148t-15.5 158q0 45 4.5 89t14.5 86l85 -92l-54 21l111 -103l-55 19l119 -95l-56 14l127 -85l-52 8l130 -73l-35 -5l118 -52
l-35 -8l121 -47l-2 -1zM1075 -146q-37 -8 -75 -13t-77 -6v282l16 -48l6 27l38 -109l5 27l42 -101l5 28zM1091 -142l-9 -2l2 15zM871 -165q-39 1 -77 6t-75 13l40 87l5 -28l42 101l5 -27l38 109l6 -27l16 48v-282zM841 192l-205 -119l-92 -45l23 -4l-108 -61l42 8l-26 -18
q-61 37 -116 86l115 36l-19 -28l117 48l-17 -28l36 17zM712 -144l-10 2l8 13z" />
    <glyph glyph-name="blocked" unicode="&#xf030;" horiz-adv-x="1789" 
d="M1708 916q-15 -5 -30 -14t-25.5 -23.5t-15.5 -35t1 -47.5q42 -128 53.5 -235t-11.5 -200t-83 -174.5t-160 -158.5q-102 -78 -197.5 -92t-174.5 34l-59 -42q-82 -29 -170 -38.5t-176.5 -1.5t-173.5 33t-161 66q-11 10 -25 21.5t-30.5 22t-33.5 17.5t-34 8q-29 -3 -55 4.5
t-46 30.5q-16 30 -9 56t30 48q28 32 40 88q-2 161 36.5 277t125.5 182l140 105q-2 85 22 152t76 115q221 204 447 187t454 -255q21 -22 41.5 -29t40.5 -4.5t41 12.5t42 22zM1233 23q38 41 56.5 113.5t16.5 159.5t-26 179t-70 172q-76 130 -166 215.5t-178 127.5t-165 42.5
t-126 -38.5q-19 -24 -31 -48t-17 -52q88 35 164 33t140.5 -32.5t119.5 -87t102 -131.5q28 -46 57.5 -99t52.5 -109.5t37 -115t12 -116.5t-22.5 -114t-66.5 -106q68 -26 110 7zM1065 43q49 47 70.5 106.5t14 134t-44 164t-103.5 196.5q-96 152 -204.5 200t-241.5 -3
l-195 -147q-47 -36 -75 -86t-42.5 -106.5t-18.5 -114.5t-3 -109q-7 -34 -20 -66.5t-37 -58.5q-11 -10 -13.5 -16.5t-0.5 -11.5q10 -8 24 -9t25 0q46 -2 87 -26.5t73 -53.5q77 -41 159.5 -62.5t163 -27t156 3.5t139.5 31z" />
    <glyph glyph-name="favorites" unicode="&#xf031;" horiz-adv-x="1789" 
d="M1625 45h-99v53q-218 -76 -340 26q-57 71 -293 71q-235 0 -292 -71q-123 -101 -340 -26v-53h-100v151q-144 337 0 506v545h100v-483q275 -30 601 -466h62q326 436 602 466v483h99v-545q144 -169 0 -506v-151z" />
    <glyph glyph-name="messages" unicode="&#xf032;" horiz-adv-x="1789" 
d="M1691 781q6 -210 -128 -382q-41 -52 -79 -89.5t-79.5 -61.5t-91 -35.5t-113.5 -11.5h-9q-30 0 -51.5 5.5t-35.5 15.5q-29 21 -44 60l-11 31l-22 -25q-71 -84 -179 -83q-118 2 -207 89q-90 90 -109 236q-24 184 53 335q46 92 112.5 135.5t154.5 42.5q125 -1 198 -104
l30 -43l10 125l161 -2l-56 -558q-3 -27 -3 -46.5t2 -29.5q2 -11 8 -18t11 -11q10 -6 18 -12l14 -4q22 2 47.5 9t45.5 21q95 67 152 181q56 111 53 236q-6 219 -178 370q-21 19 -40 35.5t-38 31.5t-38.5 28.5t-41.5 24.5q-44 23 -97 35t-128 14q-63 1 -117 -3.5t-103 -15
t-93.5 -27t-88.5 -40.5q-175 -97 -259 -273q-85 -177 -79 -367q5 -189 109 -343q25 -38 52 -72.5t58.5 -64t68.5 -54t84 -43.5q45 -18 88 -30.5t87.5 -20.5t93 -12t105.5 -5t105 6.5t92 18.5q43 11 82.5 25t78.5 28q8 2 15 5t15 6q24 13 41.5 5t26.5 -28t6.5 -45t-19.5 -43
q-47 -23 -94 -41.5t-98 -31.5t-107.5 -19.5t-123.5 -5.5q-75 1 -138.5 7t-121.5 17.5t-111.5 29t-107.5 41.5q-109 49 -189.5 118.5t-135.5 161.5q-109 186 -115 401q-6 236 107 439q112 202 315 301q204 99 470 95q57 -1 99.5 -8t80.5 -19q38 -13 75.5 -30t82.5 -39
q176 -85 271 -237q97 -154 101 -332zM1063 700q-4 41 -17 73.5t-36 55.5q-48 46 -111 45q-69 -2 -120 -53q-26 -26 -43.5 -61t-26.5 -79t-12.5 -82t-0.5 -73q5 -45 18 -80t36 -58q45 -46 107 -44q46 2 82 23q31 17 54 49q19 23 32.5 55t24.5 74q10 42 13.5 80.5t-0.5 74.5z
" />
    <glyph glyph-name="friends" unicode="&#xf033;" horiz-adv-x="1789" 
d="M1484 1415q10 -488 -503 -428q18 475 503 428zM906 994h-98v452h98v-452zM1440 733q0 -36 -13.5 -67.5t-37 -55.5t-55 -37.5t-67.5 -13.5t-67.5 13.5t-55.5 37.5t-37.5 55.5t-13.5 67.5t13.5 67.5t37.5 55.5t55.5 37.5t67.5 13.5t67.5 -13.5t55 -37.5t37 -55.5
t13.5 -67.5zM1037 733q0 -36 -13.5 -67.5t-37.5 -55.5t-55.5 -37.5t-67.5 -13.5t-67.5 13.5t-55 37.5t-37 55.5t-13.5 67.5t13.5 67.5t37 55.5t55 37.5t67.5 13.5t67.5 -13.5t55.5 -37.5t37.5 -55.5t13.5 -67.5zM1236 361q0 -36 -13.5 -67.5t-37.5 -55.5t-55.5 -37.5
t-67.5 -13.5t-67.5 13.5t-55.5 37.5t-37.5 55.5t-13.5 67.5t13.5 67.5t37.5 55.5t55.5 37.5t67.5 13.5t67.5 -13.5t55.5 -37.5t37.5 -55.5t13.5 -67.5zM634 733q0 -36 -13.5 -67.5t-37.5 -55.5t-55.5 -37.5t-67.5 -13.5t-67.5 13.5t-55 37.5t-37 55.5t-13.5 67.5t13.5 67.5
t37 55.5t55 37.5t67.5 13.5t67.5 -13.5t55.5 -37.5t37.5 -55.5t13.5 -67.5zM845 361q0 -36 -13.5 -67.5t-37.5 -55.5t-55.5 -37.5t-67.5 -13.5t-67.5 13.5t-55.5 37.5t-37.5 55.5t-13.5 67.5t13.5 67.5t37.5 55.5t55.5 37.5t67.5 13.5t67.5 -13.5t55.5 -37.5t37.5 -55.5
t13.5 -67.5zM1037 7q0 -36 -13.5 -67t-37.5 -54.5t-55.5 -37t-67.5 -13.5t-67.5 13.5t-55 37t-37 54.5t-13.5 67t13.5 67.5t37 55.5t55 37.5t67.5 13.5t67.5 -13.5t55.5 -37.5t37.5 -55.5t13.5 -67.5z" />
    <glyph glyph-name="wallet" unicode="&#xf034;" horiz-adv-x="1789" 
d="M1606 203h-1427l65 734q0 30 11 56t30.5 45.5t45.5 31t56 11.5h158v150h-104q-18 0 -33.5 7t-27.5 18.5t-18.5 27t-6.5 33.5v43q0 36 25 61t61 25h387q18 0 33.5 -6.5t27 -18.5t18.5 -27.5t7 -33.5v-43q0 -18 -7 -33.5t-18.5 -27t-27 -18.5t-33.5 -7h-111v-150h681
q30 0 56 -11.5t45.5 -31t30.5 -45.5t11 -56zM1624 -69q0 -24 -9 -42t-25 -30t-36.5 -18t-44.5 -6h-1233q-24 0 -44.5 6t-36.5 18t-25 30t-9 42v114q0 48 19 67t67 19h1290q48 0 67.5 -19t19.5 -67v-114zM1469 758v183q0 24 -16.5 40.5t-40.5 16.5h-441q-23 0 -40 -16.5
t-17 -40.5v-183q0 -23 17 -40t40 -17h441q24 0 40.5 17t16.5 40zM1419 500v68q0 6 -4 10.5t-9 4.5h-65q-5 0 -9 -4.5t-4 -10.5v-68q0 -14 13 -14h65q13 0 13 14zM1444 384v68q0 14 -13 14h-65q-13 0 -13 -14v-68q0 -6 4 -10.5t9 -4.5h65q5 0 9 4.5t4 10.5zM1305 500v68
q0 6 -4.5 10.5t-9.5 4.5h-65q-5 0 -9 -4.5t-4 -10.5v-68q0 -14 13 -14h65q5 0 9.5 4t4.5 10zM1330 384v68q0 14 -14 14h-64q-14 0 -14 -14v-68q0 -6 4 -10.5t10 -4.5h64q6 0 10 4.5t4 10.5zM1467 267v69q0 14 -13 14h-145q-14 0 -14 -14v-69q0 -14 14 -14h145q13 0 13 14z
M1190 500v68q0 6 -4 10.5t-10 4.5h-64q-6 0 -10 -4.5t-4 -10.5v-68q0 -14 14 -14h64q14 0 14 14zM1215 384v68q0 14 -14 14h-64q-14 0 -14 -14v-68q0 -6 4 -10.5t10 -4.5h64q6 0 10 4.5t4 10.5zM1043 500v68q0 6 -4 10.5t-10 4.5h-64q-6 0 -10 -4.5t-4 -10.5v-68
q0 -14 14 -14h64q14 0 14 14zM1272 267v69q0 14 -14 14h-144q-14 0 -14 -14v-69q0 -14 14 -14h144q14 0 14 14zM835 851v86q0 12 -8.5 20.5t-20.5 8.5h-430q-12 0 -20 -8.5t-8 -20.5v-86q0 -11 8 -19.5t20 -8.5h430q12 0 20.5 8.5t8.5 19.5zM928 500v68q0 6 -4 10.5t-9 4.5
h-65q-5 0 -9 -4.5t-4 -10.5v-68q0 -14 13 -14h65q13 0 13 14zM1043 384v68q0 14 -14 14h-64q-14 0 -14 -14v-68q0 -6 4 -10.5t10 -4.5h64q6 0 10 4.5t4 10.5zM814 500v68q0 6 -4.5 10.5t-9.5 4.5h-65q-5 0 -9 -4.5t-4 -10.5v-68q0 -14 13 -14h65q5 0 9.5 4t4.5 10zM928 384
v68q0 14 -13 14h-65q-13 0 -13 -14v-68q0 -6 4 -10.5t9 -4.5h65q5 0 9 4.5t4 10.5zM1043 267v68q0 6 -4 10.5t-10 4.5h-64q-6 0 -10 -4.5t-4 -10.5v-68q0 -14 14 -14h64q14 0 14 14zM814 384v68q0 6 -4.5 10t-9.5 4h-65q-13 0 -13 -14v-68q0 -6 4 -10.5t9 -4.5h65
q5 0 9.5 4.5t4.5 10.5zM928 267v68q0 6 -4 10.5t-9 4.5h-65q-5 0 -9 -4.5t-4 -10.5v-68q0 -14 13 -14h65q13 0 13 14zM654 500v68q0 6 -4 10.5t-10 4.5h-64q-6 0 -10 -4.5t-4 -10.5v-68q0 -14 14 -14h64q14 0 14 14zM814 267v68q0 6 -4.5 10.5t-9.5 4.5h-65q-5 0 -9 -4.5
t-4 -10.5v-68q0 -14 13 -14h65q5 0 9.5 4t4.5 10zM539 500v68q0 6 -4 10.5t-9 4.5h-65q-5 0 -9 -4.5t-4 -10.5v-68q0 -14 13 -14h65q13 0 13 14zM629 384v68q0 14 -14 14h-64q-14 0 -14 -14v-68q0 -6 4 -10.5t10 -4.5h64q6 0 10 4.5t4 10.5zM425 500v68q0 6 -4 10.5t-10 4.5
h-64q-6 0 -10 -4.5t-4 -10.5v-68q0 -14 14 -14h64q14 0 14 14zM514 384v68q0 14 -13 14h-65q-13 0 -13 -14v-68q0 -6 4 -10.5t9 -4.5h65q5 0 9 4.5t4 10.5zM652 267v69q0 14 -14 14h-144q-14 0 -14 -14v-69q0 -14 14 -14h144q14 0 14 14zM971 -65q0 32 -21.5 53t-53.5 21
t-53.5 -21t-21.5 -53t21.5 -53.5t53.5 -21.5t53.5 21.5t21.5 53.5zM400 384v68q0 6 -4.5 10t-9.5 4h-65q-13 0 -13 -14v-68q0 -6 4 -10.5t9 -4.5h65q5 0 9.5 4.5t4.5 10.5zM457 267v69q0 14 -14 14h-145q-13 0 -13 -14v-69q0 -14 13 -14h145q14 0 14 14z" />
    <glyph glyph-name="marketplace" unicode="&#xf035;" horiz-adv-x="1789" 
d="M1662 401l-527 -526q-20 -20 -44.5 -30t-50 -10t-50.5 10t-44 30l-858 857l-1 684l20 19h710l845 -845q19 -20 29 -44.5t10 -50t-10 -50.5t-29 -44zM1418 254l-100 99q20 26 32 48.5t23 46.5q40 84 31 159q-7 76 -55 125q-50 53 -113 62q-62 8 -130 -21
q-26 -12 -57.5 -30t-73.5 -47l-124 124q7 3 10 3t9 2q47 11 98 -24l133 148q-79 76 -188 55q-40 -8 -78 -28t-83 -57l-111 111l-45 -42l109 -109q-8 -7 -14.5 -14t-14.5 -15l-13.5 -13.5l-13.5 -13.5l-111 110l-44 -49l115 -115q-15 -21 -26 -39.5t-21 -38.5
q-36 -79 -29 -146q6 -69 48 -111q64 -67 172 -49q32 5 72.5 22.5t93.5 51.5l154 -154q-11 -6 -21.5 -8t-21.5 -4q-63 -12 -127 31l-123 -151q103 -81 220 -58q43 8 85.5 29.5t88.5 59.5l97 -97l44 50l-95 94q8 7 12.5 10.5t12.5 11.5q8 9 16 17.5t16 17.5l96 -96zM502 1014
q26 26 39 59t13 67.5t-13 68t-39 59.5t-59.5 39t-68 13t-67.5 -13t-59 -39t-39.5 -59.5t-13.5 -68t13.5 -67.5t39.5 -59t59 -39.5t67.5 -13.5t68 13.5t59.5 39.5zM1231 498q-2 -12 -3 -22.5t-9 -23.5l-127 127l1 1q21 16 40 21t33 6q29 0 46 -20q31 -31 19 -89zM923 662
l-3 -3q-19 -15 -35 -23t-32 -18l-111 112q6 8 10.5 12t12.5 12q9 9 17.5 17t16.5 15zM1182 403q-13 -18 -28 -33q-8 -8 -14.5 -12t-14.5 -11l-155 154q22 16 38 25t32 19zM800 579q-14 -8 -24 -10t-18 -4q-35 -6 -54 13q-21 22 -12 58q3 10 6 17.5t8 18.5z" />
    <glyph glyph-name="trending" unicode="&#xf036;" horiz-adv-x="1789" 
d="M1607 598l-33 -29q-67 -1 -149.5 31t-168.5 88.5t-170 135t-153.5 170.5t-117.5 194t-63 208l33 38l5 2q31 13 62.5 10.5t62.5 -14.5q115 -63 213.5 -138t183 -162.5t157.5 -188t136 -215.5q13 -34 14.5 -65t-12.5 -65zM1477 494l-9 -8q-101 -4 -192 -23.5t-176.5 -51.5
t-166 -75.5t-160.5 -95.5q72 -81 153 -149t175 -122q36 -21 18 -54l-62 -61q-39 -41 -97 7l-299 298q-32 -25 -63 -51t-62 -54q-17 -21 -38 -40.5t-45 -31.5t-51.5 -12t-56.5 18l-166 161q-18 29 -17.5 56.5t12.5 51.5t31.5 45t40.5 38q94 102 171.5 211t134.5 226.5
t91 245.5t40 267q55 -102 105.5 -187t103.5 -157t111 -133.5t128 -116t155 -104t191 -98.5zM1263 858q30 28 39.5 57.5t5.5 57t-18 51t-31 39.5q-21 25 -47 37.5t-53 14t-54 -7t-51 -26.5l-58 -54q112 -141 216 -216zM737 267l-267 289q-87 -131 -194 -247
q-12 -10 -27.5 -24.5t-27.5 -31.5t-16 -37t8 -40l159 -155q20 -11 39.5 -7t37 15.5t32 27t24.5 27.5q112 103 232 183z" />
    <glyph glyph-name="users" unicode="&#xf037;" horiz-adv-x="1789" 
d="M1702 1017q4 -99 -57.5 -185t-198.5 -140q40 -222 -124 -307q-64 -33 -85.5 -82t-2.5 -111l107 -217h-820q-21 22 -36 59t-23 76.5t-8 75t9 55.5l-53 45q-40 -37 -79 -49t-77.5 -5t-75.5 29t-72 54l-16 44l50 -1q39 -36 71 -53.5t59 -20t51 7.5t47 30l-163 134l-11 46
l46 -4l161 -132q11 25 13.5 48t-6.5 47t-30.5 50t-59.5 56l-13 46l46 -2q35 -28 62.5 -58.5t42 -65t13 -73.5t-25.5 -84l55 -47q66 51 111 45t56 -78q1 -106 131 -77q28 25 34 49.5t-5 67.5l-259 146q-36 20 -58.5 52t-27 69.5t12 77t59.5 75.5q20 24 31 59q10 30 14 76.5
t-9 112.5q-32 55 -16 118.5t75 129.5q42 48 95.5 89.5t130.5 60.5q-22 -37 -36.5 -65.5t-21.5 -52t-6 -44.5t9 -42q41 -54 106 -8q59 28 114 31t101.5 -10t82 -36.5t56.5 -46.5q18 -26 43.5 -44t53 -26.5t55 -5t49.5 21.5q29 23 41 47.5t11.5 55.5t-11.5 69.5t-27 89.5
q43 -17 77 -41t59.5 -57t43 -76.5t29.5 -98.5zM1059 871q-22 92 -60 116t-101 -18q-29 -30 -48 -80t-32 -99q17 -5 34.5 -13.5t29.5 -26t14 -47t-12 -77.5q-33 -110 77 -73q80 47 102 126.5t-4 191.5zM814 1024q-119 5 -175 -216q84 41 132 8q90 187 43 208z" />
    <glyph glyph-name="media" unicode="&#xf038;" horiz-adv-x="1789" 
d="M1322 1219q0 -14 -9 -23t-22 -9h-200q-14 0 -23 9t-9 23v52q0 14 9 23t23 9h200q13 0 22 -9t9 -23v-52zM1702 257h-619v427l-48 48v367h391l276 -578v-264zM732 1219q0 -14 -9 -23t-23 -9h-199q-14 0 -23 9t-9 23v52q0 14 9 23t23 9h199q14 0 23 -9t9 -23v-52zM941 770
q0 -10 -10 -10h-71q-10 0 -10 10v324q0 9 10 9h71q10 0 10 -9v-324zM1702 14h-619v140h619v-140zM756 732l-48 -48v-427h-618v264l275 578h391v-367zM708 14h-618v140h618v-140z" />
    <glyph glyph-name="message" unicode="&#xf039;" horiz-adv-x="1789" 
d="M1707 1197l-911 -1106l-154 167l-163 -151l-110 411l-279 280zM1423 1044l-1176 -290l194 -194l2 -5zM1491 1060l-51 -12l-961 -615l43 -176l124 115l147 -159z" />
    <glyph glyph-name="message_invert" unicode="&#xf03a;" horiz-adv-x="1789" 
d="M1701 1195l-907 -1101l-155 166l-161 -151v326l989 632l-1099 -548l-278 279z" />
    <glyph glyph-name="search" unicode="&#xf03b;" horiz-adv-x="1789" 
d="M1682 -29l-116 -116q-20 -20 -46.5 -20t-46.5 20l-306 305q-10 10 -18 25t-12 31.5t-2.5 32t11.5 25.5q5 8 9.5 14t9.5 13l-154 154q-74 -62 -165.5 -96.5t-195.5 -34.5q-116 0 -218.5 44t-178.5 120.5t-120 179t-44 218.5t44 218.5t120 178.5t178.5 120t218.5 44
t218.5 -44t179 -120t120.5 -178.5t44 -218.5q0 -104 -34.5 -195.5t-96.5 -165.5l154 -154q7 5 13 9.5t14 9.5q10 10 25 11.5t31.5 -2.5t32 -12t25.5 -18l306 -306q20 -20 20 -46t-20 -46zM1079 886q0 88 -33.5 166t-92 136.5t-136.5 92t-167 33.5t-166.5 -33.5t-136 -92
t-92 -136.5t-33.5 -166q0 -89 33.5 -167t92 -136.5t136 -92t166.5 -33.5t167 33.5t136.5 92t92 136.5t33.5 167z" />
    <glyph glyph-name="menu" unicode="&#xf03c;" horiz-adv-x="1789" 
d="M1693 902h-1603q6 90 43.5 168.5t99 136.5t142.5 91.5t173 33.5h687q91 0 172 -33.5t142.5 -91.5t99.5 -136.5t44 -168.5zM1694 580q0 -24 -9 -44.5t-25 -36t-36.5 -24.5t-44.5 -9h-1375q-24 0 -45 9t-36.5 24.5t-24.5 36t-9 44.5v124q0 24 9 44.5t24.5 36t36.5 24.5
t45 9h769l442 -204l99 204h65q24 0 44.5 -9t36.5 -24.5t25 -36t9 -44.5v-124zM1692 378q-7 -89 -45.5 -165.5t-100 -133.5t-141.5 -89.5t-170 -32.5h-687q-91 0 -171 32.5t-141.5 89.5t-99.5 133.5t-45 165.5h1601zM1355 1223q0 19 -13 32.5t-33 13.5t-33.5 -13.5
t-13.5 -32.5q0 -20 13.5 -33.5t33.5 -13.5t33 13.5t13 33.5zM1235 1074q0 32 -23 55t-55 23t-54.5 -23t-22.5 -55t22.5 -55t54.5 -23t55 23t23 55zM978 1209q0 20 -13.5 33.5t-33.5 13.5t-33.5 -13.5t-13.5 -33.5t13.5 -33t33.5 -13t33.5 13t13.5 33zM822 1086
q0 29 -20.5 49.5t-49.5 20.5t-49 -20.5t-20 -49.5t20 -49.5t49 -20.5t49.5 20.5t20.5 49.5zM546 1189q0 19 -13.5 32.5t-33.5 13.5t-33 -13.5t-13 -32.5q0 -20 13 -33.5t33 -13.5t33.5 13.5t13.5 33.5z" />
    <glyph glyph-name="match" unicode="&#xf03d;" horiz-adv-x="1789" 
d="M1698 646l-404 -109v80h-256q-2 -15 -7.5 -26t-13.5 -28q40 -46 58 -82.5t18.5 -66t-14.5 -54.5t-41 -47l-147 -143q-38 -35 -66.5 -68.5t-29.5 -58.5h10q22 0 41 -7.5t33 -20t22.5 -29.5t8.5 -36q0 -20 -8.5 -38.5t-22.5 -33t-33 -23.5t-41 -9q-21 0 -41 9t-35.5 23
t-25.5 32.5t-11 37.5q-2 23 7.5 50t20.5 56l-339 563h-54l-69 -75h-169l120 106l-93 104h142l69 -77h54l339 564q-11 29 -20.5 56.5t-7.5 50.5q1 19 11 37t25.5 32.5t35.5 23t41 8.5q22 0 41 -9t33 -23t22.5 -33t8.5 -38q0 -20 -8.5 -37t-22.5 -30t-33 -20.5t-41 -7.5
q-2 0 -5 0.5t-5 0.5q1 -25 29.5 -59t66.5 -69l147 -142q26 -23 41 -48t14 -55.5t-20 -67.5t-61 -85q10 -14 16.5 -23.5t8.5 -25.5h257v103zM923 929l-148 209q-9 14 -17.5 28t-16.5 28l-313 -519h408q91 70 111.5 130.5t-24.5 123.5zM923 363q45 64 24.5 124.5t-111.5 129.5
h-408l313 -518q8 14 16.5 28t17.5 27z" />
    <glyph glyph-name="twitter" unicode="&#xf03e;" horiz-adv-x="1789" 
d="M1792 640q0 -124 -32 -238.5t-90.5 -213.5t-140 -181t-181 -140t-214 -90t-238.5 -32t-238.5 32t-214 90t-181 140t-140 181t-90.5 213.5t-32 238.5t32 238.5t90.5 214t140 181t181 140t214 90.5t238.5 32t238.5 -32t214 -90.5t181 -140t140 -181t90.5 -214t32 -238.5z
M1679 640q0 108 -28 208t-79 187t-122.5 158.5t-158.5 122.5t-187 79t-208 28t-208 -28t-187 -79t-158.5 -122.5t-122.5 -158.5t-79 -187t-28 -208t28 -208t79 -187t122.5 -158.5t158.5 -122t187 -78.5t208 -28t208 28t187 78.5t158.5 122t122.5 158.5t79 187t28 208z
M1349 908q-38 -53 -89 -92v-23q0 -72 -21 -142.5t-64 -136.5q-41 -65 -101 -117q-60 -51 -142 -80q-84 -30 -178 -30q-148 0 -273 80q10 -1 20.5 -1.5t22.5 -0.5q124 0 221 76q-60 2 -104 35q-45 34 -63 88q10 -1 18 -1.5t16 -0.5q23 0 47 6q-63 12 -103 61q-40 47 -40 115
q19 -10 39 -15.5t42 -6.5q-37 24 -58.5 63t-21.5 85t25 90q66 -82 161 -132q96 -49 205 -54q-2 10 -3 20t-1 20q0 74 52 126t126 52q76 0 130 -56q60 12 113 43q-21 -64 -79 -98q52 6 103 27z" />
    <glyph glyph-name="twitter_invert" unicode="&#xf040;" horiz-adv-x="1789" 
d="M1792 640q0 -124 -32 -238.5t-90.5 -213.5t-140 -181t-181 -140t-214 -90t-238.5 -32t-238.5 32t-214 90t-181 140t-140 181t-90.5 213.5t-32 238.5t32 238.5t90.5 214t140 181t181 140t214 90.5t238.5 32t238.5 -32t214 -90.5t181 -140t140 -181t90.5 -214t32 -238.5z
M1349 908q-51 -21 -103 -27q58 34 79 98q-53 -31 -113 -43q-54 56 -130 56q-74 0 -126 -52t-52 -126q0 -10 1 -20t3 -20q-109 5 -205 54q-95 50 -161 132q-25 -44 -25 -90t21.5 -85t58.5 -63q-22 1 -42 6.5t-39 15.5q0 -68 40 -115q40 -49 103 -61q-24 -6 -47 -6
q-8 0 -16 0.5t-18 1.5q18 -54 63 -88q44 -33 104 -35q-97 -76 -221 -76q-12 0 -22.5 0.5t-20.5 1.5q125 -80 273 -80q94 0 178 30q82 29 142 80q60 52 101 117q43 66 64 136.5t21 142.5v23q51 39 89 92z" />
    <glyph glyph-name="google_plus" unicode="&#xf041;" horiz-adv-x="1789" 
d="M1792 640q0 -124 -32 -238.5t-90.5 -213.5t-140 -181t-181 -140t-214 -90t-238.5 -32t-238.5 32t-214 90t-181 140t-140 181t-90.5 213.5t-32 238.5t32 238.5t90.5 214t140 181t181 140t214 90.5t238.5 32t238.5 -32t214 -90.5t181 -140t140 -181t90.5 -214t32 -238.5z
M1679 640q0 108 -28 208t-79 187t-122.5 158.5t-158.5 122.5t-187 79t-208 28t-208 -28t-187 -79t-158.5 -122.5t-122.5 -158.5t-79 -187t-28 -208t28 -208t79 -187t122.5 -158.5t158.5 -122t187 -78.5t208 -28t208 28t187 78.5t158.5 122t122.5 158.5t79 187t28 208z
M1508 613h-107v-108h-109v108h-107v109h107v107h109v-107h107v-109zM1062 659q0 -108 -45 -192q-46 -84 -128 -130q-83 -48 -190 -48q-77 0 -147 30t-121 81q-26 25 -45.5 55t-34.5 65q-16 35 -23 72t-7 75t7 75t23 72q30 71 80 121q52 51 121 80q70 30 147 30
q146 0 253 -99l-103 -98q-59 56 -150 58q-47 1 -89.5 -18t-74.5 -52t-51 -77t-19 -92t19 -91.5t51 -76.5t74.5 -52t89.5 -18q43 0 78.5 11.5t58.5 29.5q37 28 55.5 62t21.5 60h-214v130h356q3 -17 5 -32.5t2 -30.5z" />
    <glyph glyph-name="google_plus_invert" unicode="&#xf042;" horiz-adv-x="1789" 
d="M1792 640q0 -124 -32 -238.5t-90.5 -213.5t-140 -181t-181 -140t-214 -90t-238.5 -32t-238.5 32t-214 90t-181 140t-140 181t-90.5 213.5t-32 238.5t32 238.5t90.5 214t140 181t181 140t214 90.5t238.5 32t238.5 -32t214 -90.5t181 -140t140 -181t90.5 -214t32 -238.5z
M1508 613v109h-107v107h-109v-107h-107v-109h107v-108h109v108h107zM1062 659q0 15 -2 30.5t-5 32.5h-356v-130h214q-3 -26 -21.5 -60t-55.5 -62q-23 -18 -58.5 -29.5t-78.5 -11.5q-47 -1 -89.5 18t-74.5 52t-51 76.5t-19 91.5t19 92t51 77t74.5 52t89.5 18q91 -2 150 -58
l103 98q-107 99 -253 99q-77 0 -147 -30q-69 -29 -121 -80q-50 -50 -80 -121q-16 -35 -23 -72t-7 -75t7 -75t23 -72q15 -35 34.5 -65t45.5 -55q51 -51 121 -81t147 -30q107 0 190 48q82 46 128 130q45 84 45 192z" />
    <glyph glyph-name="facebook" unicode="&#xf043;" horiz-adv-x="1789" 
d="M1792 640q0 -124 -32 -238.5t-90.5 -213.5t-140 -181t-181 -140t-214 -90t-238.5 -32t-238.5 32t-214 90t-181 140t-140 181t-90.5 213.5t-32 238.5t32 238.5t90.5 214t140 181t181 140t214 90.5t238.5 32t238.5 -32t214 -90.5t181 -140t140 -181t90.5 -214t32 -238.5z
M1679 640q0 108 -28 208t-79 187t-122.5 158.5t-158.5 122.5t-187 79t-208 28t-208 -28t-187 -79t-158.5 -122.5t-122.5 -158.5t-79 -187t-28 -208t28 -208t79 -187t122.5 -158.5t158.5 -122t187 -78.5t208 -28t208 28t187 78.5t158.5 122t122.5 158.5t79 187t28 208z
M1083 904h-70q-38 0 -51.5 -16.5t-13.5 -48.5v-84h130l-17 -132h-113v-338h-137v338h-113v132h113v97q0 82 47 129q46 45 123 45q33 0 58.5 -1t43.5 -4v-117z" />
    <glyph glyph-name="facebook_invert" unicode="&#xf044;" horiz-adv-x="1789" 
d="M1792 640q0 -124 -32 -238.5t-90.5 -213.5t-140 -181t-181 -140t-214 -90t-238.5 -32t-238.5 32t-214 90t-181 140t-140 181t-90.5 213.5t-32 238.5t32 238.5t90.5 214t140 181t181 140t214 90.5t238.5 32t238.5 -32t214 -90.5t181 -140t140 -181t90.5 -214t32 -238.5z
M1083 904v117q-18 3 -43.5 4t-58.5 1q-77 0 -123 -45q-47 -47 -47 -129v-97h-113v-132h113v-338h137v338h113l17 132h-130v84q0 32 13.5 48.5t51.5 16.5h70z" />
    <glyph glyph-name="rss" unicode="&#xf045;" horiz-adv-x="1789" 
d="M1792 640q0 -124 -32 -238.5t-90.5 -213.5t-140 -181t-181 -140t-214 -90t-238.5 -32t-238.5 32t-214 90t-181 140t-140 181t-90.5 213.5t-32 238.5t32 238.5t90.5 214t140 181t181 140t214 90.5t238.5 32t238.5 -32t214 -90.5t181 -140t140 -181t90.5 -214t32 -238.5z
M1679 640q0 108 -28 208t-79 187t-122.5 158.5t-158.5 122.5t-187 79t-208 28t-208 -28t-187 -79t-158.5 -122.5t-122.5 -158.5t-79 -187t-28 -208t28 -208t79 -187t122.5 -158.5t158.5 -122t187 -78.5t208 -28t208 28t187 78.5t158.5 122t122.5 158.5t79 187t28 208z
M1337 292q0 -15 -10 -25q-11 -11 -26 -11h-78q-14 0 -24 9.5t-11 23.5q-3 59 -17 114t-38 109q-47 104 -127 184t-184 127q-108 49 -223 56q-14 1 -23.5 10.5t-9.5 23.5v78q0 15 11 26q10 9 26 9q72 0 140 -18t134 -47q130 -59 233 -161q102 -103 161 -233q58 -130 66 -275z
M1056 294q1 -15 -9 -27q-11 -11 -26 -11h-74q-14 0 -23 9t-11 23q-12 123 -101 214q-91 89 -214 101q-14 2 -23 11t-9 23v74q0 15 11 26q10 9 27 9q44 0 86 -10.5t81 -29.5t75 -45.5t67 -57.5q63 -63 99.5 -142t43.5 -167zM776 361q0 -44 -31 -75q-30 -30 -74 -30t-74 30
q-31 31 -31 75t31 74q30 31 74 31t74 -31q31 -30 31 -74z" />
    <glyph glyph-name="rss_invert" unicode="&#xf046;" horiz-adv-x="1789" 
d="M1792 640q0 -124 -32 -238.5t-90.5 -213.5t-140 -181t-181 -140t-214 -90t-238.5 -32t-238.5 32t-214 90t-181 140t-140 181t-90.5 213.5t-32 238.5t32 238.5t90.5 214t140 181t181 140t214 90.5t238.5 32t238.5 -32t214 -90.5t181 -140t140 -181t90.5 -214t32 -238.5z
M1337 292q-8 145 -66 275q-59 130 -161 233q-103 102 -233 161q-66 29 -134 47t-140 18q-16 0 -26 -9q-11 -11 -11 -26v-78q0 -14 9.5 -23.5t23.5 -10.5q115 -7 223 -56q104 -47 184 -127t127 -184q24 -54 38 -109t17 -114q1 -14 11 -23.5t24 -9.5h78q15 0 26 11
q10 10 10 25zM1056 294q-7 88 -43.5 167t-99.5 142q-31 31 -67 57.5t-75 45.5t-81 29.5t-86 10.5q-17 0 -27 -9q-11 -11 -11 -26v-74q0 -14 9 -23t23 -11q123 -12 214 -101q89 -91 101 -214q2 -14 11 -23t23 -9h74q15 0 26 11q10 12 9 27zM776 361q0 44 -31 74
q-30 31 -74 31t-74 -31q-31 -30 -31 -74t31 -75q30 -30 74 -30t74 30q31 31 31 75z" />
    <glyph glyph-name="arrow_up" unicode="&#xf047;" horiz-adv-x="1789" 
d="M1690 323l-108 -107q-6 -6 -14 -6t-14 6l-658 591l-658 -591q-6 -6 -14 -6t-14 6l-108 107q-6 5 -6 14t6 14l780 713q14 12 28 0l780 -713q6 -5 6 -14t-6 -14z" />
    <glyph glyph-name="arrow_up_invert" unicode="&#xf048;" horiz-adv-x="1789" 
d="M1792 30q0 -59 -22.5 -111t-61.5 -90.5t-91 -61t-112 -22.5h-1218q-60 0 -112 22.5t-91 61t-61.5 90.5t-22.5 111v1219q0 59 22.5 111.5t61.5 91.5t91 61.5t112 22.5h1218q60 0 112 -22.5t91 -61.5t61.5 -91.5t22.5 -111.5v-1219zM1690 323q6 5 6 14t-6 14l-780 713
q-14 12 -28 0l-780 -713q-6 -5 -6 -14t6 -14l108 -107q6 -6 14 -6t14 6l658 591l658 -591q6 -6 14 -6t14 6z" />
    <glyph glyph-name="arrow_down" unicode="&#xf049;" horiz-adv-x="1789" 
d="M1690 957q6 -6 6 -14.5t-6 -14.5l-780 -712q-6 -6 -14 -6t-14 6l-780 712q-6 6 -6 14.5t6 14.5l108 107q6 6 14 5.5t14 -5.5l658 -592l658 592q6 5 14 5.5t14 -5.5z" />
    <glyph glyph-name="arrow_down_invert" unicode="&#xf04a;" horiz-adv-x="1789" 
d="M1792 30q0 -59 -22.5 -111t-61.5 -90.5t-91 -61t-112 -22.5h-1218q-60 0 -112 22.5t-91 61t-61.5 90.5t-22.5 111v1219q0 59 22.5 111.5t61.5 91.5t91 61.5t112 22.5h1218q60 0 112 -22.5t91 -61.5t61.5 -91.5t22.5 -111.5v-1219zM1690 957l-108 107q-6 6 -14 5.5
t-14 -5.5l-658 -592l-658 592q-6 5 -14 5.5t-14 -5.5l-108 -107q-6 -6 -6 -14.5t6 -14.5l780 -712q6 -6 14 -6t14 6l780 712q6 6 6 14.5t-6 14.5z" />
    <glyph glyph-name="arrow_left" unicode="&#xf04b;" horiz-adv-x="1789" 
d="M1320 -17q14 -14 0 -28l-107 -108q-6 -6 -14.5 -6.5t-14.5 6.5l-712 779q-6 6 -6 14t6 14l712 780q6 6 14.5 6t14.5 -6l107 -108q6 -6 6 -14t-6 -14l-591 -658z" />
    <glyph glyph-name="arrow_left_invert" unicode="&#xf04c;" horiz-adv-x="1789" 
d="M1792 30q0 -59 -22.5 -111t-61.5 -90.5t-91 -61t-112 -22.5h-1218q-60 0 -112 22.5t-91 61t-61.5 90.5t-22.5 111v1219q0 59 22.5 111.5t61.5 91.5t91 61.5t112 22.5h1218q60 0 112 -22.5t91 -61.5t61.5 -91.5t22.5 -111.5v-1219zM1320 -17l-591 657l591 658q6 6 6 14
t-6 14l-107 108q-6 6 -14.5 6t-14.5 -6l-712 -780q-6 -6 -6 -14t6 -14l712 -779q6 -7 14.5 -6.5t14.5 6.5l107 108q14 14 0 28z" />
    <glyph glyph-name="arrow_right" unicode="&#xf04d;" horiz-adv-x="1789" 
d="M1320 626l-712 -779q-6 -7 -14.5 -6.5t-14.5 6.5l-107 108q-6 6 -6 14t6 14l591 657l-591 658q-6 6 -6 14t6 14l107 108q6 6 14.5 6t14.5 -6l712 -780q14 -14 0 -28z" />
    <glyph glyph-name="arrow_right_invert" unicode="&#xf04e;" horiz-adv-x="1789" 
d="M1792 30q0 -59 -22.5 -111t-61.5 -90.5t-91 -61t-112 -22.5h-1218q-60 0 -112 22.5t-91 61t-61.5 90.5t-22.5 111v1219q0 59 22.5 111.5t61.5 91.5t91 61.5t112 22.5h1218q60 0 112 -22.5t91 -61.5t61.5 -91.5t22.5 -111.5v-1219zM1320 626q14 14 0 28l-712 780
q-6 6 -14.5 6t-14.5 -6l-107 -108q-6 -6 -6 -14t6 -14l591 -658l-591 -657q-6 -6 -6 -14t6 -14l107 -108q6 -6 14.5 -6.5t14.5 6.5z" />
    <glyph glyph-name="aries" unicode="&#xf050;" horiz-adv-x="1789" 
d="M1670 1254q22 -55 23 -120t-14 -128.5t-43.5 -119t-64.5 -91.5q-19 -20 -46.5 -20t-47.5 20q-19 20 -19.5 47t19.5 47q24 23 43 62.5t30 84t11 89t-14 78.5q-31 76 -139 76q-58 0 -108.5 -35t-93 -97.5t-77.5 -148t-62.5 -186t-48 -212t-34 -226.5t-20 -229.5
t-6.5 -219.5q0 -28 -19.5 -47.5t-47.5 -19.5q-27 0 -46.5 19.5t-19.5 47.5q0 105 -6.5 219.5t-20 229.5t-34 226.5t-48.5 212t-63 186t-77.5 148t-93 97.5t-108.5 35q-107 0 -138 -76q-14 -34 -14 -78.5t11 -89t30 -84t42 -62.5q20 -20 20 -47t-20 -47q-19 -20 -46.5 -20
t-47.5 20q-36 36 -64.5 91.5t-43.5 119t-14 128.5t24 120q32 77 99 117.5t162 40.5q71 0 132 -29t112 -81.5t92.5 -124.5t75.5 -158t60 -182.5t45 -197.5q19 101 45.5 197.5t60 182.5t75.5 158t93 124.5t111.5 81.5t131.5 29q96 0 163 -40.5t99 -117.5z" />
    <glyph glyph-name="taurus" unicode="&#xf051;" horiz-adv-x="1789" 
d="M1692 1377q0 -29 -20 -48.5t-49 -19.5q-50 0 -87.5 -16t-69.5 -46.5t-61.5 -73.5t-62.5 -97q-20 -32 -41 -66t-46 -66t-54 -62t-64 -55q63 -33 114.5 -82t88.5 -109t57.5 -129.5t20.5 -145.5q0 -109 -41.5 -205t-113 -167.5t-167.5 -113t-205 -41.5t-205 41.5t-168 113
t-113.5 167.5t-41.5 205q0 76 20.5 145.5t57.5 129.5t88.5 109t114.5 82q-35 25 -64 55t-54 62t-46.5 66t-40.5 66q-33 54 -62.5 97t-61.5 73.5t-70 46.5t-87 16q-29 0 -49 19.5t-20 48.5t20 49t49 20q81 0 141.5 -27t107 -69.5t82 -96t67.5 -105.5t63.5 -99t70 -83t87 -57
t114.5 -21t114 21t86.5 56.5t70 82.5t63.5 100q32 52 67.5 105.5t82 96t107 69.5t141.5 27q29 0 49 -20t20 -49zM1280 361q0 81 -30.5 152t-83.5 124t-123.5 83.5t-151.5 30.5t-152 -30.5t-124 -83.5t-83.5 -124t-30.5 -152t30.5 -151.5t83.5 -123.5t124 -83.5t152 -30.5
t151.5 30.5t123.5 83.5t83.5 123.5t30.5 151.5z" />
    <glyph glyph-name="gemini" unicode="&#xf052;" horiz-adv-x="1789" 
d="M1691 1331q5 -31 -13 -56.5t-49 -30.5q-153 -26 -337 -41v-1101q95 -8 181 -20t161 -30q15 -3 27 -12t19.5 -21t10 -26.5t-0.5 -29.5q-6 -26 -27 -42t-47 -16h-8t-9 2q-92 22 -205 35t-237 18.5t-254 4.5t-257.5 -8.5t-247 -20.5t-221.5 -30q-31 -5 -56.5 12.5
t-30.5 48.5t13 56t49 30q76 13 160.5 23.5t176.5 18.5v1101q-96 8 -181.5 20t-160.5 29q-30 8 -46.5 34t-9.5 57q8 30 34 46.5t57 9.5q92 -22 205 -35t237 -18.5t254 -4.5t257.5 8.5t247 20.5t221.5 30q31 5 56.5 -13t30.5 -49zM1141 110v1082q-153 -9 -311 -9
q-48 0 -95.5 1t-95.5 3v-1082q125 8 252 9t250 -4z" />
    <glyph glyph-name="cancer" unicode="&#xf053;" horiz-adv-x="1789" 
d="M1703 1031q-8 -27 -32 -41t-51 -6q-46 12 -115.5 29t-155 33.5t-182.5 30t-198 19t-201 1t-191 -24.5q36 -21 65.5 -50.5t51 -65.5t33 -77t11.5 -86q0 -67 -25.5 -126t-69.5 -103t-103 -69.5t-126 -25.5t-126 25.5t-103 69.5t-69.5 103t-25.5 126q0 48 13.5 91.5
t36.5 81.5l1 1q2 4 6 10l1 1q17 25 38.5 47.5t42.5 39.5q92 74 212 112.5t252 51.5t269.5 5t265 -27t238.5 -44.5t190 -47.5q27 -8 41 -32.5t6 -51.5zM1706 507q0 -48 -13.5 -91.5t-37.5 -81.5q0 -1 -1 -2l-6 -9v-1q-1 0 -1 -1q-17 -24 -38 -46.5t-43 -39.5
q-92 -74 -211.5 -112.5t-251.5 -51.5t-269.5 -5t-265 27t-238.5 44.5t-190 47.5q-28 8 -42 32t-6 51q4 13 12.5 24t20 17.5t24.5 8.5t27 -2q45 -13 115 -30t155.5 -33.5t182.5 -30t197.5 -19t200.5 -1t191 24.5q-72 43 -116 116.5t-44 163.5q0 67 25.5 126t69.5 103
t103 69.5t126 25.5t126 -25.5t103 -69.5t69.5 -103t25.5 -126zM1570 507q0 39 -15 73t-40.5 59.5t-59.5 40.5t-73 15t-73.5 -15t-60 -40.5t-40.5 -59.5t-15 -73t15 -73.5t40.5 -60t60 -40.5t73.5 -15q29 0 55 8.5t49 23.5q30 25 53 54q31 45 31 103zM602 793q0 39 -15 73.5
t-40.5 60t-59.5 40.5t-73 15q-29 0 -55 -8.5t-49 -23.5q-30 -24 -54 -54q-14 -23 -22.5 -48.5t-8.5 -54.5q0 -39 15 -73.5t40.5 -60t60 -40.5t73.5 -15t73 15t59.5 40.5t40.5 60t15 73.5z" />
    <glyph glyph-name="leo" unicode="&#xf054;" horiz-adv-x="1789" 
d="M1515 9q17 -21 12.5 -48t-26.5 -43q-66 -49 -125.5 -67t-107.5 -18q-37 0 -66 7t-49 15q-33 13 -62 33t-51.5 44t-37.5 51t-20 54q-13 74 -4 140t31.5 127t55 117t66.5 111q41 66 79 134t63 146q43 134 28 241.5t-86 176.5q-29 28 -65.5 47.5t-76.5 28t-81.5 6.5
t-80.5 -15q-22 -8 -50.5 -23.5t-55 -43.5t-48 -70.5t-29.5 -102.5q-5 -33 -0.5 -68t14 -71t23.5 -73.5t29 -75.5q26 -66 47.5 -132.5t27.5 -134.5q0 -10 1 -19t1 -19q0 -53 -18 -101q0 -2 -1 -3q0 -3 -2 -5q-17 -43 -45 -78.5t-64.5 -61.5t-81 -40.5t-92.5 -14.5
q-63 0 -118.5 24t-96.5 65.5t-65 96.5t-24 118t24 118.5t65 97t96.5 65.5t118.5 24q47 0 91 -15q-15 39 -28 78.5t-22 79.5t-12.5 80.5t1.5 81.5q17 128 88 218.5t183 129.5q57 19 116.5 22t117 -9.5t110 -40.5t95.5 -70q28 -28 60 -74.5t51.5 -114t18.5 -158t-38 -205.5
q-29 -90 -70.5 -164t-85.5 -145q-32 -51 -60 -100t-47.5 -97.5t-26.5 -99t3 -105.5q1 -6 7 -16.5t17 -22.5t27.5 -24t38.5 -21q51 -20 106.5 -8t114.5 54q22 16 49 12t43 -26zM738 475q-2 34 -16 63.5t-37 51.5t-53.5 34.5t-64.5 12.5q-36 0 -67.5 -13.5t-55 -37t-37 -55
t-13.5 -67.5t13.5 -67t37 -54.5t55 -37t67.5 -13.5q56 0 100.5 32.5t61.5 83.5q11 32 9 67z" />
    <glyph glyph-name="virgo" unicode="&#xf055;" horiz-adv-x="1789" 
d="M1520 549q-21 -71 -53 -131.5t-71.5 -111.5t-84.5 -92.5t-91 -75.5q12 -41 31 -74.5t37.5 -57.5t32 -37.5l13.5 -13.5q22 -18 24 -46.5t-17 -50.5q-10 -12 -24 -18t-28 -6q-25 0 -45 17q-2 1 -18 16.5t-38 43t-46 66t-42 86.5q-48 -26 -91.5 -44t-76.5 -29.5t-54 -17
t-25 -6.5t-7.5 -1.5t-8.5 -0.5q-23 0 -42 15t-25 38q-6 28 9 52t43 30q1 0 21.5 6t55 19t79.5 33t94 49q-1 4 -1 12v1035q0 28 -8.5 41.5t-13.5 13.5q-19 0 -40.5 -18.5t-42.5 -49t-40 -70t-34 -80.5t-23.5 -81t-8.5 -72v-719q0 -29 -20 -48.5t-49 -19.5t-49 19.5t-20 48.5
v1035q0 28 -8.5 41.5t-13.5 13.5q-20 0 -43.5 -19t-47 -50t-45.5 -71t-38.5 -81t-26.5 -80.5t-10 -69.5v-719q0 -29 -20 -48.5t-49 -19.5t-49 19.5t-20 48.5v969q0 17 -5 36t-14.5 36.5t-24.5 31.5t-36 22q-26 11 -38 36.5t-1 52.5q10 26 36 38t52 2q60 -23 96.5 -66
t54.5 -93q22 34 48 64t55 52t60.5 34.5t65.5 12.5q55 0 95.5 -36t56.5 -95q39 57 88.5 94t108.5 37q34 0 63.5 -14.5t51 -40.5t33.5 -61.5t12 -76.5v-261q37 63 80.5 103.5t92.5 40.5q35 0 66 -16t54 -47q34 -45 47 -112t12 -140.5t-13 -145.5t-28 -126zM1392 991q-5 6 -7 6
q-15 -8 -33.5 -35t-38 -65t-38.5 -82.5t-33.5 -88.5t-23.5 -83.5t-9 -66.5v-268q58 53 105.5 122t73.5 157q18 63 26.5 127t8.5 119t-8 96.5t-23 61.5z" />
    <glyph glyph-name="libra" unicode="&#xf056;" horiz-adv-x="1789" 
d="M1689 507q0 -32 -22 -54.5t-54 -22.5h-509q-24 0 -43.5 13t-27.5 35q-9 21 -5 44t21 39l22 22q25 25 50.5 52t46.5 59t34 71.5t13 88.5q0 51 -25.5 96.5t-69.5 79t-103.5 53.5t-126.5 20q-68 0 -127.5 -20t-103.5 -53.5t-69.5 -79t-25.5 -96.5q0 -49 13 -88.5t34 -71.5
t46.5 -59t50.5 -52l22 -22q17 -16 21 -39t-4 -44q-9 -22 -28.5 -35t-42.5 -13h-510q-32 0 -54 22.5t-22 54.5t22 54.5t54 22.5h334q-37 51 -63.5 116.5t-26.5 153.5q0 82 35.5 154t98 126t147.5 86.5t183 35.5q2 0 4.5 0.5t4.5 0.5h7h6q2 0 4.5 -0.5t4.5 -0.5
q98 -3 183 -35.5t147.5 -86.5t98 -126t35.5 -154q0 -88 -26.5 -153.5t-63.5 -116.5h334q32 0 54 -22.5t22 -54.5zM1702 99q0 -32 -22 -54.5t-54 -22.5h-1460q-32 0 -54 22.5t-22 54.5t22 54.5t54 22.5h1460q32 0 54 -22.5t22 -54.5z" />
    <glyph glyph-name="scorpio" unicode="&#xf057;" horiz-adv-x="1789" 
d="M1642 64q20 -16 19.5 -41.5t-21.5 -40.5l-178 -136q-13 -10 -28 -11t-28 5.5t-21 19t-8 29.5l1 77q-65 10 -134 33t-125.5 62.5t-92.5 97.5t-36 139v952q0 28 -8.5 42t-13.5 14q-20 0 -41.5 -19t-43 -50.5t-41 -71.5t-34.5 -82t-24 -82.5t-9 -73.5v-733
q0 -29 -20.5 -49.5t-49.5 -20.5t-49.5 20.5t-20.5 49.5v1056q0 28 -9 42t-14 14q-21 0 -44.5 -19.5t-47.5 -51t-46.5 -72.5t-39.5 -83t-27.5 -82t-10.5 -71v-733q0 -29 -20.5 -49.5t-49.5 -20.5t-49.5 20.5t-20.5 49.5v989q0 35 -20 73t-62 55q-27 11 -39 37t-1 54
q11 27 37.5 39t53.5 1q60 -23 97.5 -67t55.5 -95q23 35 49.5 65.5t56 53t61.5 35.5t67 13q57 0 98 -37t57 -97q40 59 90.5 96.5t110.5 37.5q35 0 65 -15t51.5 -41.5t34 -62.5t12.5 -78v-952q0 -46 24.5 -79t62 -55t81 -35.5t81.5 -20.5l1 58q0 16 8.5 28.5t21.5 18.5t28 4.5
t28 -11.5z" />
    <glyph glyph-name="sagittarius" unicode="&#xf058;" horiz-adv-x="1789" 
d="M1698 617q2 -18 -2.5 -34t-15 -29t-25 -22t-32.5 -11q-2 0 -5 -0.5t-6 -0.5q-32 0 -56 21.5t-29 53.5l-62 495l-662 -667l304 -314q12 -13 18 -28.5t6 -32t-6.5 -32t-19.5 -27.5q-26 -24 -60 -24q-17 0 -32.5 6t-28.5 20l-302 310l-439 -441q-26 -26 -61 -26t-60 25
q-26 26 -26 61t25 61l441 443l-290 299q-25 26 -24.5 61t26.5 60t61 24.5t60 -26.5l288 -296l661 667l-486 62q-18 2 -32.5 11t-24.5 22t-14.5 29t-2.5 34t11 32.5t22 24.5t29 15t34 2l725 -93z" />
    <glyph glyph-name="capricorn" unicode="&#xf059;" horiz-adv-x="1789" 
d="M1702 456q0 -72 -25.5 -128.5t-67.5 -95.5t-95 -60t-108 -21h-5q-31 0 -62.5 1.5t-65 9.5t-69.5 26.5t-76 51.5q-27 -62 -65 -120.5t-95.5 -104t-139 -73.5t-193.5 -28q-28 0 -47.5 19.5t-19.5 48.5q0 27 19.5 46.5t47.5 19.5q94 0 158.5 24t109 64.5t72.5 95t51 114.5
q-27 38 -44 92t-28.5 119.5t-19 139t-14.5 150.5q-3 33 -6.5 72t-8 79t-10.5 78.5t-12.5 70.5t-15 54.5t-18.5 30.5q-32 -2 -62 -35.5t-56.5 -89.5t-49.5 -129t-41 -154t-30.5 -164.5t-18.5 -159.5q-2 -28 -23.5 -45.5t-48.5 -15.5q-28 2 -46 23t-16 49q3 31 3.5 80
t-2.5 107t-11.5 121t-24 123t-40 113t-59.5 91q-65 72 -166 72q-28 0 -47.5 19.5t-19.5 47.5t19.5 47.5t47.5 19.5q158 0 265 -115q45 -48 74.5 -109.5t49.5 -128.5q22 72 51.5 138.5t67 117.5t84 81t103.5 30q59 0 94.5 -41t56.5 -110.5t31 -161.5t19 -194q4 -41 8 -84
t9 -86t11 -83t14 -75q19 45 44.5 86t60.5 72t82 49.5t110 18.5q76 0 134 -26t97 -68.5t59 -96.5t20 -110zM1568 456q0 4 -1 18t-6.5 32.5t-16.5 39t-30.5 37.5t-49 28t-72.5 11q-45 0 -75.5 -15.5t-54 -46.5t-43 -77.5t-40.5 -107.5q33 -34 60.5 -52t53.5 -26.5t52 -10
t56 -1.5h5q24 0 52.5 9t53 29.5t40.5 53t16 79.5z" />
    <glyph glyph-name="aquarius" unicode="&#xf05a;" horiz-adv-x="1789" 
d="M1697 857q12 -28 1 -55.5t-39 -39.5q-7 -4 -14 -5t-15 -1q-21 0 -39 11.5t-27 31.5l-88 201l-278 -196q-27 -19 -59 -11t-48 38l-78 159l-297 -197q-14 -8 -29.5 -11t-30.5 2q-32 10 -46 39l-78 166l-329 -221q-25 -17 -54.5 -11.5t-46.5 31.5q-17 25 -11 54t31 46
l399 269q29 18 60 9q15 -4 27 -14.5t19 -24.5l79 -166l296 196q29 18 59 9q32 -8 46 -38l77 -157l281 199q29 19 61 10q16 -4 28 -15t19 -26zM1697 198q12 -28 1 -56t-39 -40q-14 -6 -29 -6q-21 0 -39 11.5t-27 32.5l-88 201l-278 -196q-27 -21 -59 -11q-32 8 -48 38
l-78 159l-297 -197q-28 -19 -60 -9q-32 8 -46 39l-78 166l-329 -221q-25 -17 -54.5 -11.5t-46.5 30.5q-17 26 -11 55t31 46l399 268q28 19 60 10q32 -10 46 -39l79 -167l296 197q29 18 59 9q32 -8 46 -38l77 -157l281 198q27 21 61 11q33 -9 47 -41z" />
    <glyph glyph-name="pisces" unicode="&#xf05b;" horiz-adv-x="1789" 
d="M1566 662q0 -33 -23 -56t-56 -23h-315q9 -79 34.5 -155.5t58.5 -145t68 -126.5t65 -100.5t49 -66.5t20 -25q22 -25 19.5 -57.5t-27.5 -54.5q-11 -10 -24.5 -14.5t-27.5 -4.5q-35 0 -60 28q-3 4 -26.5 33t-58 78.5t-74.5 116t-76 145.5t-63.5 167.5t-36.5 181.5h-220
q-9 -93 -36.5 -181.5t-63.5 -167.5t-76 -145.5t-74.5 -116t-58 -78.5t-26.5 -33q-25 -28 -60 -28q-14 0 -27.5 4.5t-24.5 14.5q-25 22 -27.5 54.5t19.5 57.5q0 1 19.5 25t49.5 66.5t65 101t68 127t58 144.5t35 155h-327q-33 0 -56 23t-23 56t23 56t56 23h327q-10 80 -35 153
t-57 136t-67 114t-64 87.5t-47.5 56.5t-19.5 21q-24 23 -24.5 55.5t22.5 56.5q11 12 25.5 18t30 6t30 -5.5t26.5 -16.5q3 -3 27 -28t58.5 -69t75 -105t77.5 -135.5t64.5 -161.5t37.5 -183h220q9 96 37 183t65 161.5t77.5 135.5t75 105t58.5 69t27 28q12 11 26.5 16.5t30 5.5
t30 -6t25.5 -18q23 -24 22.5 -56.5t-24.5 -55.5q-1 -1 -19.5 -21t-47.5 -57t-64 -88t-67 -114t-57 -136t-35 -152h315q33 0 56 -23t23 -56z" />
    <glyph glyph-name="settings" unicode="&#xf05c;" horiz-adv-x="1789" 
d="M1705 1054l-1 -109q-1 -12 -9.5 -20.5t-20.5 -7.5l-77 1q-17 -55 -45 -101l58 -55q8 -9 8.5 -21t-8.5 -21l-75 -78q-9 -9 -21 -9t-21 8l-55 53q-26 -10 -51 -19.5t-52 -16.5q0 -2 0.5 -3t-0.5 -3l-1 -77q0 -12 -8.5 -20.5t-20.5 -7.5l-110 2q-12 0 -20 8.5t-8 20.5l1 77
q-27 8 -52 19t-48 25l-59 -58q-9 -8 -21 -8t-20 9l-76 78q-8 9 -8 21t9 21l55 53q-13 24 -23 49.5t-17 52.5h-6l-77 1q-11 0 -19.5 8.5t-8.5 21.5l2 109q0 12 8.5 20.5t20.5 7.5l77 -1q9 27 20 52.5t25 48.5l-57 55q-9 8 -9 20.5t8 20.5l76 79q8 9 20 9t21 -8l55 -53
q26 10 51.5 20t52.5 16l-1 80q-1 12 7.5 20.5t20.5 8.5l110 2q12 1 20.5 -7.5t8.5 -20.5l1 -77q1 -2 0.5 -3t-0.5 -3q53 -13 99 -41l59 58q9 8 21.5 7.5t20.5 -8.5l75 -79q9 -8 8.5 -20.5t-8.5 -20.5l-55 -53q12 -25 22.5 -50t16.5 -52h6l77 -1q12 0 20.5 -9t7.5 -21z
M999 596l-2 -109q0 -12 -8.5 -20.5t-20.5 -8.5l-77 2q-17 -55 -45 -101l58 -56q8 -8 8.5 -20t-8.5 -21l-75 -78q-9 -9 -21 -9t-21 8l-55 53q-26 -11 -51.5 -20.5t-51.5 -15.5v-6l-1 -77q0 -12 -8.5 -20.5t-21.5 -8.5l-109 2q-12 1 -20.5 9.5t-7.5 20.5l1 76q-27 9 -52 20
t-48 25l-59 -58q-9 -8 -21 -8t-20 9l-76 78q-8 9 -8 21t8 20l56 54q-13 24 -23 49.5t-17 52.5q-2 0 -3 -0.5t-3 -0.5l-77 2q-12 0 -20.5 8.5t-7.5 20.5l2 110q0 12 8.5 20t20.5 8l77 -1q9 27 20 52.5t25 48.5l-58 55q-8 8 -8 20.5t8 20.5l76 79q8 8 20 8.5t21 -7.5l55 -54
q26 11 51.5 20.5t52.5 16.5l-1 80q-1 12 7.5 20.5t20.5 8.5l109 2q13 0 21.5 -8.5t8.5 -19.5l1 -77v-6q54 -14 99 -41l59 58q9 8 21 7.5t21 -8.5l75 -79q9 -8 8.5 -20.5t-8.5 -20.5l-55 -53q12 -25 22 -50t17 -52h6l77 -1q12 0 20.5 -9t7.5 -21zM1490 997q0 49 -19 92.5
t-51 75.5t-75.5 51t-92.5 19q-50 0 -93 -19t-75.5 -51t-51 -75.5t-18.5 -92.5t18.5 -92.5t51 -75.5t75.5 -51t93 -19q49 0 92.5 19t75.5 51t51 75.5t19 92.5zM784 539q0 49 -19 92.5t-51 75.5t-75.5 51t-92.5 19q-50 0 -93 -19t-75.5 -51t-51 -75.5t-18.5 -92.5
q0 -50 18.5 -93t51 -75.5t75.5 -51t93 -18.5q49 0 92.5 18.5t75.5 51t51 75.5t19 93z" />
    <glyph glyph-name="login" unicode="&#xf05d;" horiz-adv-x="1789" 
d="M1701 638q0 -106 -27.5 -203.5t-77 -182.5t-119.5 -154.5t-155 -119.5t-182.5 -77t-203.5 -27q-108 0 -207 28t-185.5 79.5t-156.5 123.5t-119 160q-14 25 -6 46t28 32t42 7t36 -29q42 -75 101.5 -136t133 -105t157.5 -68t176 -24q90 0 173 23t155.5 65.5t132 101.5
t101.5 131.5t65.5 155.5t23.5 173q0 135 -51 253t-139.5 206.5t-207 139.5t-253.5 51q-92 0 -176 -24t-156.5 -68t-132 -105t-101.5 -136q-14 -26 -36 -30t-42 7q-19 11 -27.5 32t5.5 46q49 88 119 160t155.5 124t184.5 80.5t207 28.5q106 0 203.5 -27.5t182.5 -77
t155 -119.5t119.5 -155t77 -183t27.5 -203zM689 548h-505q-30 0 -50 13.5t-30 33t-10 43t10 43t30 33t50 13.5h505l-140 144q-21 21 -25 45t3.5 44.5t24 37t37.5 23t44.5 1.5t44.5 -26q78 -80 136 -136t97 -96.5t58 -69.5t19 -56.5t-19 -56.5t-58 -69.5t-97 -96t-136 -135.5
q-21 -22 -44.5 -27t-44.5 2t-37.5 23t-24 37t-3.5 44.5t25 44.5z" />
    <glyph glyph-name="access" unicode="&#xf05e;" horiz-adv-x="1789" 
d="M1696 638q0 -106 -27.5 -203.5t-77 -182.5t-119.5 -154.5t-155 -119.5t-182.5 -77t-203.5 -27q-108 0 -207 28t-185.5 79.5t-156.5 123.5t-119 160q-14 25 -6 46t28 32t42 7t36 -29q42 -75 101.5 -136t133 -105t157.5 -68t176 -24q135 0 253.5 51t207 139t139.5 206.5
t51 253.5t-51 253t-139.5 206.5t-207 139.5t-253.5 51q-92 0 -176 -24t-156.5 -68t-131.5 -105t-101 -136q-14 -26 -36.5 -30t-42.5 7q-19 11 -27.5 32t5.5 46q49 88 119 160t155.5 124t184.5 80.5t207 28.5q106 0 203.5 -27.5t182.5 -77t155 -119.5t119.5 -155t77 -183
t27.5 -203zM1267 652q0 -15 -5.5 -30.5t-16 -28t-27 -20t-37.5 -7.5h-15v-66q0 -21 -7.5 -37t-20 -26.5t-27.5 -16t-30 -5.5t-30.5 5.5t-27.5 16t-19.5 26.5t-7.5 37v66h-90v-155q0 -21 -7.5 -37t-20 -26.5t-27.5 -16t-30 -5.5t-30.5 5.5t-27.5 16t-19.5 26.5t-7.5 37v155
h-180q-13 -35 -35 -63.5t-51.5 -49.5t-65 -32.5t-74.5 -11.5q-50 0 -94 19t-76.5 51.5t-51.5 76.5t-19 94t19 93.5t51.5 76t76.5 51.5t94 19q38 0 73 -11.5t64.5 -31.5t52 -48t35.5 -62h626q21 0 37.5 -7.5t27 -20t16 -27.5t5.5 -30zM434 650q0 21 -8 40t-22.5 33t-33.5 22
t-40 8t-40 -8t-33.5 -22t-22.5 -33t-8 -40q0 -22 8 -41t22.5 -33t33.5 -22t40 -8t40 8t33.5 22t22.5 33t8 41z" />
    <glyph glyph-name="logout" unicode="&#xf060;" horiz-adv-x="1789" 
d="M1414 800h-459q-41 0 -61.5 25.5t-20.5 56t20.5 56t61.5 25.5h459l-127 131q-19 19 -22.5 40.5t3 40.5t21.5 34t34.5 21t40.5 1t40 -24q94 -97 156.5 -156t94 -99t31.5 -70.5t-31.5 -70.5t-94 -99t-156.5 -156q-19 -20 -40 -24.5t-40.5 2t-34.5 21t-21.5 34t-3 41
t22.5 40.5zM1191 287q0 -37 -26 -63t-64 -26h-325v-268q0 -18 -7 -34.5t-19.5 -27t-29 -13t-35.5 7.5l-565 300q-26 14 -36 32t-10 38v1084q0 34 21 61t64 27q5 1 9 1.5t9 0.5h924q38 0 64 -26t26 -64v-240h-114v216h-707l360 -192q13 -7 22 -18t14 -23.5t7.5 -24.5t2.5 -22
v-701h301v366h114v-391z" />
    <glyph glyph-name="hashtag" unicode="&#xf061;" horiz-adv-x="1789" 
d="M1643 810h-305l-73 -340h278v-217h-325l-90 -418h-236l88 418h-341l-91 -418h-236l91 418h-260v217h307l73 340h-279v217h326l91 419h236l-90 -419h335l88 419h245l-90 -419h258v-217zM1096 810h-336l-74 -340h339z" />
    <glyph glyph-name="password" unicode="&#xf062;" horiz-adv-x="1789" 
d="M1607 3q0 -33 -12.5 -62t-34.5 -51t-51.5 -34.5t-62.5 -12.5h-1106q-33 0 -62.5 12.5t-51.5 34.5t-34.5 51t-12.5 62v603q0 33 12.5 62t34.5 51t51.5 34.5t62.5 12.5h902v205q0 63 -24 119t-65.5 97.5t-97 65.5t-118.5 24h-88q-60 0 -113 -22t-94 -60t-66.5 -89
t-30.5 -110h-161q5 92 43 172.5t101 140t145.5 94t175.5 34.5h88q96 0 181 -36.5t148.5 -99.5t100 -148t36.5 -182v-205h43q33 0 62.5 -12.5t51.5 -34.5t34.5 -51t12.5 -62v-603zM1504 3v603q0 24 -17 41t-41 17h-1106q-24 0 -41 -17t-17 -41v-603q0 -23 17 -40t41 -17h1106
q24 0 41 17t17 40zM1060 415q0 -28 -9 -53.5t-24.5 -46.5t-37.5 -36.5t-47 -23.5v-42h43v-51h-43v-43h66v-84h-164v220q-51 16 -84.5 59.5t-33.5 100.5q0 34 13 64.5t36 53.5t53 36t65 13q34 0 64.5 -13t53.5 -36t36 -53.5t13 -64.5z" />
    <glyph glyph-name="password_invert" unicode="&#xf063;" horiz-adv-x="1789" 
d="M1607 3q0 -33 -12.5 -62t-34.5 -51t-51.5 -34.5t-62.5 -12.5h-1106q-33 0 -62.5 12.5t-51.5 34.5t-34.5 51t-12.5 62v603q0 33 12.5 62t34.5 51t51.5 34.5t62.5 12.5h902v205q0 63 -24 119t-65.5 97.5t-97 65.5t-118.5 24h-88q-60 0 -113 -22t-94 -60t-66.5 -89
t-30.5 -110h-161q5 92 43 172.5t101 140t145.5 94t175.5 34.5h88q96 0 181 -36.5t148.5 -99.5t100 -148t36.5 -182v-205h43q33 0 62.5 -12.5t51.5 -34.5t34.5 -51t12.5 -62v-603zM1060 415q0 34 -13 64.5t-36 53.5t-53.5 36t-64.5 13q-35 0 -65 -13t-53 -36t-36 -53.5
t-13 -64.5q0 -57 33.5 -100.5t84.5 -59.5v-220h164v84h-66v43h43v51h-43v42q25 8 47 23.5t37.5 36.5t24.5 46.5t9 53.5z" />
    <glyph glyph-name="nav" unicode="&#xf064;" 
d="M1702 963h-1612v220h1612v-220zM1702 525h-1612v220h1612v-220zM1702 88h-1612v220h1612v-220z" />
    <glyph glyph-name="push_pin" unicode="&#xf065;" 
d="M1704 834q-5 -64 -50 -109q-24 -23 -44 -28q-8 -2 -22 -4q-6 -1 -12.5 -1.5t-14.5 -0.5q-60 -5 -99 31l-347 -347q69 -75 43 -216q-25 -143 -131 -249q-24 -23 -56.5 -26t-54.5 19l-313 312l-443 -368q-13 -11 -29.5 -12t-28.5 11q-24 26 -1 55l353 463l-294 295
q-22 22 -19.5 54.5t26.5 56.5q106 106 249 132q142 24 217 -45l347 347q-36 41 -32 99q1 8 1 14.5t1 12.5l2 12t3 11q6 22 28 43q45 46 108 51q65 3 104 -37l473 -472q41 -42 36 -104zM1617 840q1 15 -2.5 23t-8.5 13l-473 473q-5 5 -13 8.5t-23 1.5q-14 -1 -27 -6.5
t-26 -18.5q-12 -12 -25.5 -33t-15.5 -36q-1 -14 2.5 -22t8.5 -14l17 -17l2 2l445 -444l9 -13q5 -6 13 -9t23 -2t36 14.5t33 26.5q24 24 25 53zM1408 792l-359 358l-357 -357l359 -358zM1073 174q11 61 9.5 102t-18.5 58l-31 31l-417 416l-25 26q-17 17 -58 18.5t-102 -9.5
q-115 -21 -200 -105q139 -140 245 -245.5t183.5 -184t130.5 -132t87 -87.5q79 -81 88 -90q45 43 71 93.5t37 108.5z" />
    <glyph glyph-name="edit" unicode="&#xf066;" 
d="M1674 1270l-94 -94l-146 146l94 94q29 29 69.5 29t69.5 -29l7 -7q14 -14 21 -32t7 -37t-7 -37.5t-21 -32.5zM1514 1111l-687 -688l-214 -81l68 227l687 688zM1538 17q0 -38 -14.5 -71.5t-39.5 -58.5t-59 -39.5t-72 -14.5h-1080q-38 0 -72 14.5t-59 39.5t-39.5 58.5
t-14.5 71.5v1080q0 38 14.5 72t39.5 59t59 39.5t72 14.5h916l-125 -124h-791q-9 0 -19.5 -6t-20 -15.5t-15.5 -20t-6 -19.5v-1080q0 -9 6 -19.5t15.5 -19.5t20 -15t19.5 -6h1080q9 0 19.5 6t20 15t15.5 19.5t6 19.5v791l124 125v-916zM1258 118h-877v77h877v-77z" />
    <glyph glyph-name="tw" unicode="&#xf067;" horiz-adv-x="1789" 
d="M1636 1133q-65 -94 -154 -159q1 -7 1 -16.5v-23.5q0 -125 -36 -247t-111 -236q-37 -57 -80.5 -107t-94.5 -94q-102 -87 -245 -139q-72 -26 -148.5 -38.5t-159.5 -12.5q-130 0 -247 34t-225 104q17 -2 35.5 -3t38.5 -1q215 0 382 131q-100 1 -179 61q-78 60 -108 152
q16 -2 30 -3.5t28 -1.5q39 0 81 11q-108 21 -177 105q-70 85 -70 200q32 -17 67 -27t72 -12q-63 42 -100 109.5t-37 146.5q0 84 42 155q58 -71 127.5 -128t152.5 -99q164 -85 354 -94q-8 38 -8 70q0 128 89 217q90 90 218 90q134 0 225 -97q52 11 100.5 29t94.5 46
q-36 -110 -135 -170q45 5 88.5 16.5t88.5 31.5z" />
    <glyph glyph-name="g_plus" unicode="&#xf068;" horiz-adv-x="1789" 
d="M1567 666h-179v-179h-89v179h-178v89h178v178h89v-178h179v-89zM1124 1326l-112 -72h-107q116 -101 122 -213q7 -161 -124 -258q-68 -51 -75 -99t50 -87q106 -75 160 -146.5t49 -146.5q-11 -158 -120 -241.5t-316 -96.5q-85 -5 -159.5 9.5t-129.5 46.5t-87 79.5
t-33 109.5q-2 140 116.5 216.5t356.5 90.5q-88 79 -37 188q-54 -10 -108.5 0.5t-100.5 36t-79.5 64t-46.5 85.5q-18 64 -11.5 121.5t31 105.5t63.5 86.5t86 65.5t100 41t105 14h407zM843 1082q-41 112 -107 154t-153 9q-72 -27 -93 -104t14 -195q34 -117 98 -162.5
t152 -23.5q87 41 110 121t-21 201zM969 246q-3 36 -30 77.5t-84 83.5l-82 60q-181 3 -276.5 -48.5t-101.5 -158.5q-3 -47 15.5 -85t54.5 -66.5t88.5 -46t117.5 -21.5q74 -5 129.5 7.5t92.5 39.5t56 67t20 91z" />
    <glyph glyph-name="fb" unicode="&#xf069;" horiz-adv-x="1789" 
d="M1249 1124l-178 16q-35 3 -58.5 -6.5t-37 -28t-19 -44.5t-5.5 -55v-197h240l-32 -193h-208v-646h-201v646h-209v193h209v204q0 151 85 236q85 84 227 84q61 0 107.5 -6.5t79.5 -11.5v-191z" />
    <glyph glyph-name="close" unicode="&#xf06a;" 
d="M1702 -17l-148 -148l-658 656l-658 -656l-148 148l657 657l-657 658l148 148l658 -657l658 657l148 -148l-657 -658z" />
    </font>
</defs>
</svg>
